<svg version="1.1" viewBox="0.0 0.0 1134.015748031496 408.06299212598424" fill="none" stroke="none" stroke-linecap="square" stroke-miterlimit="10" xmlns:xlink="http://www.w3.org/1999/xlink" xmlns="http://www.w3.org/2000/svg"><clipPath id="p.0"><path d="m0 0l1134.0157 0l0 408.063l-1134.0157 0l0 -408.063z" clip-rule="nonzero"/></clipPath><g clip-path="url(#p.0)"><path fill="#000000" fill-opacity="0.0" d="m0 0l1134.0157 0l0 408.063l-1134.0157 0z" fill-rule="evenodd"/><path fill="#cfe2f3" d="m293.69815 93.47888l0 0c0 -32.82174 26.6073 -59.429012 59.429016 -59.429012l469.9924 0c15.761536 0 30.877563 6.2612534 42.022644 17.406353c11.145081 11.145103 17.406372 26.2611 17.406372 42.02266l0 237.7089c0 32.821747 -26.6073 59.429016 -59.429016 59.429016l-469.9924 0c-32.821716 0 -59.429016 -26.60727 -59.429016 -59.429016z" fill-rule="evenodd"/><path stroke="#000000" stroke-width="1.0" stroke-linejoin="round" stroke-linecap="butt" d="m293.69815 93.47888l0 0c0 -32.82174 26.6073 -59.429012 59.429016 -59.429012l469.9924 0c15.761536 0 30.877563 6.2612534 42.022644 17.406353c11.145081 11.145103 17.406372 26.2611 17.406372 42.02266l0 237.7089c0 32.821747 -26.6073 59.429016 -59.429016 59.429016l-469.9924 0c-32.821716 0 -59.429016 -26.60727 -59.429016 -59.429016z" fill-rule="evenodd"/><path fill="#000000" d="m338.54184 65.59478q0.0625 -0.234375 0.25 -0.359375q0.1875 -0.125 0.421875 -0.125q0.296875 0 0.5 0.1875q0.21875 0.171875 0.21875 0.46875q0 0.125 -0.046875 0.296875l-4.21875 11.890625q-0.09375 0.25 -0.328125 0.390625q-0.21875 0.140625 -0.5 0.140625q-0.25 0 -0.484375 -0.140625q-0.21875 -0.140625 -0.3125 -0.390625l-3.65625 -10.34375l-3.703125 10.34375q-0.078125 0.25 -0.3125 0.390625q-0.21875 0.140625 -0.484375 0.140625q-0.265625 0 -0.484375 -0.140625q-0.21875 -0.140625 -0.3125 -0.390625l-4.234375 -11.890625q-0.0625 -0.15625 -0.0625 -0.28125q0 -0.296875 0.234375 -0.484375q0.234375 -0.1875 0.53125 -0.1875q0.21875 0 0.421875 0.125q0.203125 0.125 0.265625 0.359375l3.6875 10.59375l3.71875 -10.484375q0.09375 -0.28125 0.296875 -0.421875q0.21875 -0.140625 0.453125 -0.140625q0.25 0 0.453125 0.15625q0.203125 0.15625 0.296875 0.421875l3.671875 10.515625l3.71875 -10.640625zm6.2295837 12.90625q-1.296875 0 -2.28125 -0.578125q-0.96875 -0.578125 -1.5 -1.640625q-0.53125 -1.078125 -0.53125 -2.5q0 -1.40625 0.53125 -2.484375q0.53125 -1.078125 1.5 -1.65625q0.984375 -0.578125 2.28125 -0.578125q1.28125 0 2.265625 0.578125q1.0 0.578125 1.53125 1.65625q0.53125 1.078125 0.53125 2.484375q0 1.421875 -0.53125 2.5q-0.53125 1.0625 -1.53125 1.640625q-0.984375 0.578125 -2.265625 0.578125zm0 -1.25q1.34375 0 2.0625 -0.875q0.71875 -0.890625 0.71875 -2.59375q0 -1.65625 -0.734375 -2.5625q-0.71875 -0.90625 -2.046875 -0.90625q-1.328125 0 -2.0625 0.90625q-0.71875 0.90625 -0.71875 2.5625q0 1.6875 0.71875 2.578125q0.71875 0.890625 2.0625 0.890625zm11.072968 -8.140625q0.78125 -0.0625 0.78125 0.625q0 0.296875 -0.171875 0.484375q-0.15625 0.171875 -0.5625 0.203125l-0.5625 0.0625q-1.25 0.109375 -1.859375 0.890625q-0.609375 0.765625 -0.609375 1.8125l0 4.53125q0 0.375 -0.203125 0.5625q-0.203125 0.1875 -0.53125 0.1875q-0.34375 0 -0.5625 -0.1875q-0.203125 -0.203125 -0.203125 -0.5625l0 -7.875q0 -0.34375 0.21875 -0.53125q0.21875 -0.203125 0.546875 -0.203125q0.296875 0 0.5 0.203125q0.203125 0.1875 0.203125 0.515625l0 1.046875q0.390625 -0.828125 1.109375 -1.25q0.71875 -0.421875 1.65625 -0.5l0.25 -0.015625zm9.351288 8.078125q0.296875 0.265625 0.296875 0.59375q0 0.28125 -0.203125 0.484375q-0.1875 0.203125 -0.46875 0.203125q-0.234375 0 -0.5 -0.21875l-4.875 -4.203125l0 3.671875q0 0.359375 -0.21875 0.5625q-0.203125 0.1875 -0.515625 0.1875q-0.34375 0 -0.5625 -0.1875q-0.203125 -0.203125 -0.203125 -0.5625l0 -11.84375q0 -0.359375 0.203125 -0.546875q0.21875 -0.203125 0.5625 -0.203125q0.3125 0 0.515625 0.203125q0.21875 0.1875 0.21875 0.546875l0 7.578125l4.46875 -4.09375q0.21875 -0.21875 0.5 -0.21875q0.28125 0 0.484375 0.203125q0.203125 0.203125 0.203125 0.484375q0 0.3125 -0.265625 0.5625l-3.671875 3.28125l4.03125 3.515625zm8.941376 -0.921875q0.203125 0 0.34375 0.171875q0.15625 0.171875 0.15625 0.421875q0 0.46875 -0.65625 0.859375q-0.671875 0.390625 -1.421875 0.59375q-0.734375 0.1875 -1.453125 0.1875q-2.109375 0 -3.328125 -1.25q-1.21875 -1.25 -1.21875 -3.453125q0 -1.390625 0.53125 -2.453125q0.546875 -1.078125 1.53125 -1.671875q0.984375 -0.609375 2.234375 -0.609375q1.765625 0 2.8125 1.15625q1.046875 1.15625 1.046875 3.140625q0 0.375 -0.15625 0.546875q-0.140625 0.15625 -0.484375 0.15625l-6.0 0q0.15625 3.21875 3.03125 3.21875q0.734375 0 1.25 -0.203125q0.53125 -0.203125 1.125 -0.53125q0.484375 -0.28125 0.65625 -0.28125zm-3.265625 -6.03125q-1.203125 0 -1.921875 0.75q-0.71875 0.75 -0.84375 2.109375l5.28125 0q-0.03125 -1.375 -0.6875 -2.109375q-0.65625 -0.75 -1.828125 -0.75zm10.550598 -1.125q0.78125 -0.0625 0.78125 0.625q0 0.296875 -0.171875 0.484375q-0.15625 0.171875 -0.5625 0.203125l-0.5625 0.0625q-1.25 0.109375 -1.859375 0.890625q-0.609375 0.765625 -0.609375 1.8125l0 4.53125q0 0.375 -0.203125 0.5625q-0.203125 0.1875 -0.53125 0.1875q-0.34375 0 -0.5625 -0.1875q-0.203125 -0.203125 -0.203125 -0.5625l0 -7.875q0 -0.34375 0.21875 -0.53125q0.21875 -0.203125 0.546875 -0.203125q0.296875 0 0.5 0.203125q0.203125 0.1875 0.203125 0.515625l0 1.046875q0.390625 -0.828125 1.109375 -1.25q0.71875 -0.421875 1.65625 -0.5l0.25 -0.015625z" fill-rule="nonzero"/><path fill="#d9ead3" d="m361.48294 255.23119l0 0c0 -5.92305 4.8015747 -10.724625 10.724609 -10.724625l113.19644 0c2.8443298 0 5.5722046 1.1299133 7.583435 3.1411743c2.011261 2.0112457 3.1411743 4.739105 3.1411743 7.5834503l0 42.8972c0 5.923065 -4.8015747 10.72464 -10.724609 10.72464l-113.19644 0c-5.9230347 0 -10.724609 -4.8015747 -10.724609 -10.72464z" fill-rule="evenodd"/><path stroke="#000000" stroke-width="1.0" stroke-linejoin="round" stroke-linecap="butt" stroke-dasharray="8.0,3.0" d="m361.48294 255.23119l0 0c0 -5.92305 4.8015747 -10.724625 10.724609 -10.724625l113.19644 0c2.8443298 0 5.5722046 1.1299133 7.583435 3.1411743c2.011261 2.0112457 3.1411743 4.739105 3.1411743 7.5834503l0 42.8972c0 5.923065 -4.8015747 10.72464 -10.724609 10.72464l-113.19644 0c-5.9230347 0 -10.724609 -4.8015747 -10.724609 -10.72464z" fill-rule="evenodd"/><path fill="#000000" d="m389.79208 282.7248q0.0625 0.140625 0.0625 0.3125q0 0.28125 -0.21875 0.46875q-0.203125 0.1875 -0.5 0.1875q-0.46875 0 -0.65625 -0.453125l-1.328125 -3.015625l-7.03125 0l-1.34375 3.015625q-0.1875 0.453125 -0.65625 0.453125q-0.296875 0 -0.515625 -0.1875q-0.21875 -0.203125 -0.21875 -0.484375q0 -0.15625 0.0625 -0.296875l5.34375 -11.875q0.109375 -0.25 0.328125 -0.375q0.234375 -0.140625 0.484375 -0.140625q0.28125 0 0.5 0.140625q0.234375 0.140625 0.34375 0.375l5.34375 11.875zm-9.109375 -3.765625l5.90625 0l-2.953125 -6.703125l-2.953125 6.703125zm17.243134 -4.171875q0.203125 -0.4375 0.640625 -0.4375q0.28125 0 0.5 0.1875q0.234375 0.1875 0.234375 0.46875q0 0.15625 -0.078125 0.296875l-3.640625 7.828125q-0.109375 0.25 -0.328125 0.390625q-0.21875 0.140625 -0.484375 0.140625q-0.25 0 -0.46875 -0.140625q-0.21875 -0.140625 -0.359375 -0.390625l-3.609375 -7.828125q-0.078125 -0.140625 -0.078125 -0.28125q0 -0.28125 0.25 -0.484375q0.25 -0.203125 0.546875 -0.203125q0.1875 0 0.359375 0.109375q0.1875 0.109375 0.28125 0.3125l3.109375 7.0l3.125 -6.96875zm6.5775757 -0.5q3.421875 0 3.421875 3.578125l0 5.078125q0 0.34375 -0.203125 0.546875q-0.1875 0.203125 -0.53125 0.203125q-0.328125 0 -0.546875 -0.203125q-0.203125 -0.203125 -0.203125 -0.546875l0 -0.890625q-0.34375 0.796875 -1.078125 1.234375q-0.71875 0.4375 -1.671875 0.4375q-0.875 0 -1.625 -0.34375q-0.734375 -0.359375 -1.171875 -0.984375q-0.421875 -0.640625 -0.421875 -1.40625q0 -1.03125 0.515625 -1.59375q0.53125 -0.578125 1.71875 -0.828125q1.203125 -0.25 3.328125 -0.25l0.40625 0l0 -0.609375q0 -1.125 -0.453125 -1.640625q-0.453125 -0.53125 -1.484375 -0.53125q-1.265625 0 -2.578125 0.6875q-0.5 0.328125 -0.703125 0.328125q-0.21875 0 -0.375 -0.171875q-0.140625 -0.171875 -0.140625 -0.4375q0 -0.25 0.15625 -0.4375q0.15625 -0.203125 0.515625 -0.40625q0.640625 -0.375 1.46875 -0.59375q0.84375 -0.21875 1.65625 -0.21875zm-0.609375 8.25q1.109375 0 1.828125 -0.75q0.71875 -0.765625 0.71875 -1.953125l0 -0.546875l-0.328125 0q-1.640625 0 -2.5 0.140625q-0.859375 0.140625 -1.234375 0.46875q-0.359375 0.328125 -0.359375 0.953125q0 0.734375 0.53125 1.21875q0.53125 0.46875 1.34375 0.46875zm10.981567 -0.03125q0.65625 0.046875 0.65625 0.59375q0 0.3125 -0.234375 0.46875q-0.234375 0.15625 -0.703125 0.125l-0.5 -0.03125q-1.484375 -0.125 -2.203125 -0.90625q-0.703125 -0.78125 -0.703125 -2.359375l0 -4.6875l-1.25 0q-0.328125 0 -0.5 -0.15625q-0.171875 -0.15625 -0.171875 -0.421875q0 -0.28125 0.171875 -0.4375q0.171875 -0.171875 0.5 -0.171875l1.25 0l0 -2.109375q0 -0.359375 0.203125 -0.546875q0.203125 -0.203125 0.5625 -0.203125q0.328125 0 0.53125 0.203125q0.21875 0.1875 0.21875 0.546875l0 2.109375l2.0625 0q0.296875 0 0.46875 0.171875q0.1875 0.15625 0.1875 0.4375q0 0.265625 -0.1875 0.421875q-0.171875 0.15625 -0.46875 0.15625l-2.0625 0l0 4.75q0 1.03125 0.40625 1.5q0.421875 0.453125 1.265625 0.5l0.5 0.046875zm5.858734 -8.21875q3.421875 0 3.421875 3.578125l0 5.078125q0 0.34375 -0.203125 0.546875q-0.1875 0.203125 -0.53125 0.203125q-0.328125 0 -0.546875 -0.203125q-0.203125 -0.203125 -0.203125 -0.546875l0 -0.890625q-0.34375 0.796875 -1.078125 1.234375q-0.71875 0.4375 -1.671875 0.4375q-0.875 0 -1.625 -0.34375q-0.734375 -0.359375 -1.171875 -0.984375q-0.421875 -0.640625 -0.421875 -1.40625q0 -1.03125 0.515625 -1.59375q0.53125 -0.578125 1.71875 -0.828125q1.203125 -0.25 3.328125 -0.25l0.40625 0l0 -0.609375q0 -1.125 -0.453125 -1.640625q-0.453125 -0.53125 -1.484375 -0.53125q-1.265625 0 -2.578125 0.6875q-0.5 0.328125 -0.703125 0.328125q-0.21875 0 -0.375 -0.171875q-0.140625 -0.171875 -0.140625 -0.4375q0 -0.25 0.15625 -0.4375q0.15625 -0.203125 0.515625 -0.40625q0.640625 -0.375 1.46875 -0.59375q0.84375 -0.21875 1.65625 -0.21875zm-0.609375 8.25q1.109375 0 1.828125 -0.75q0.71875 -0.765625 0.71875 -1.953125l0 -0.546875l-0.328125 0q-1.640625 0 -2.5 0.140625q-0.859375 0.140625 -1.234375 0.46875q-0.359375 0.328125 -0.359375 0.953125q0 0.734375 0.53125 1.21875q0.53125 0.46875 1.34375 0.46875zm11.278442 -8.203125q0.78125 -0.0625 0.78125 0.625q0 0.296875 -0.171875 0.484375q-0.15625 0.171875 -0.5625 0.203125l-0.5625 0.0625q-1.25 0.109375 -1.859375 0.890625q-0.609375 0.765625 -0.609375 1.8125l0 4.53125q0 0.375 -0.203125 0.5625q-0.203125 0.1875 -0.53125 0.1875q-0.34375 0 -0.5625 -0.1875q-0.203125 -0.203125 -0.203125 -0.5625l0 -7.875q0 -0.34375 0.21875 -0.53125q0.21875 -0.203125 0.546875 -0.203125q0.296875 0 0.5 0.203125q0.203125 0.1875 0.203125 0.515625l0 1.046875q0.390625 -0.828125 1.109375 -1.25q0.71875 -0.421875 1.65625 -0.5l0.25 -0.015625zm11.336487 9.421875q-1.40625 0 -2.6875 -0.421875q-1.28125 -0.421875 -2.046875 -1.140625q-0.265625 -0.25 -0.265625 -0.640625q0 -0.265625 0.140625 -0.453125q0.15625 -0.203125 0.359375 -0.203125q0.234375 0 0.515625 0.203125q1.734375 1.34375 3.953125 1.34375q1.609375 0 2.46875 -0.609375q0.859375 -0.625 0.859375 -1.765625q0 -0.640625 -0.421875 -1.046875q-0.40625 -0.40625 -1.078125 -0.640625q-0.671875 -0.25 -1.796875 -0.515625q-1.53125 -0.34375 -2.515625 -0.734375q-0.984375 -0.390625 -1.59375 -1.125q-0.59375 -0.734375 -0.59375 -1.90625q0 -1.109375 0.59375 -1.96875q0.609375 -0.875 1.703125 -1.34375q1.09375 -0.484375 2.484375 -0.484375q1.3125 0 2.4375 0.40625q1.140625 0.390625 1.90625 1.140625q0.296875 0.296875 0.296875 0.65625q0 0.25 -0.15625 0.453125q-0.140625 0.1875 -0.359375 0.1875q-0.203125 0 -0.53125 -0.203125q-0.921875 -0.75 -1.703125 -1.046875q-0.78125 -0.296875 -1.890625 -0.296875q-1.546875 0 -2.40625 0.65625q-0.84375 0.640625 -0.84375 1.796875q0 0.984375 0.75 1.484375q0.75 0.484375 2.328125 0.859375q1.6875 0.40625 2.65625 0.765625q0.96875 0.34375 1.609375 1.03125q0.65625 0.6875 0.65625 1.84375q0 1.09375 -0.609375 1.9375q-0.609375 0.84375 -1.71875 1.3125q-1.09375 0.46875 -2.5 0.46875zm11.22052 -1.25q0.65625 0.046875 0.65625 0.59375q0 0.3125 -0.234375 0.46875q-0.234375 0.15625 -0.703125 0.125l-0.5 -0.03125q-1.484375 -0.125 -2.203125 -0.90625q-0.703125 -0.78125 -0.703125 -2.359375l0 -4.6875l-1.25 0q-0.328125 0 -0.5 -0.15625q-0.171875 -0.15625 -0.171875 -0.421875q0 -0.28125 0.171875 -0.4375q0.171875 -0.171875 0.5 -0.171875l1.25 0l0 -2.109375q0 -0.359375 0.203125 -0.546875q0.203125 -0.203125 0.5625 -0.203125q0.328125 0 0.53125 0.203125q0.21875 0.1875 0.21875 0.546875l0 2.109375l2.0625 0q0.296875 0 0.46875 0.171875q0.1875 0.15625 0.1875 0.4375q0 0.265625 -0.1875 0.421875q-0.171875 0.15625 -0.46875 0.15625l-2.0625 0l0 4.75q0 1.03125 0.40625 1.5q0.421875 0.453125 1.265625 0.5l0.5 0.046875zm5.8587646 -8.21875q3.421875 0 3.421875 3.578125l0 5.078125q0 0.34375 -0.203125 0.546875q-0.1875 0.203125 -0.53125 0.203125q-0.328125 0 -0.546875 -0.203125q-0.203125 -0.203125 -0.203125 -0.546875l0 -0.890625q-0.34375 0.796875 -1.078125 1.234375q-0.71875 0.4375 -1.671875 0.4375q-0.875 0 -1.625 -0.34375q-0.734375 -0.359375 -1.171875 -0.984375q-0.421875 -0.640625 -0.421875 -1.40625q0 -1.03125 0.515625 -1.59375q0.53125 -0.578125 1.71875 -0.828125q1.203125 -0.25 3.328125 -0.25l0.40625 0l0 -0.609375q0 -1.125 -0.453125 -1.640625q-0.453125 -0.53125 -1.484375 -0.53125q-1.265625 0 -2.578125 0.6875q-0.5 0.328125 -0.703125 0.328125q-0.21875 0 -0.375 -0.171875q-0.140625 -0.171875 -0.140625 -0.4375q0 -0.25 0.15625 -0.4375q0.15625 -0.203125 0.515625 -0.40625q0.640625 -0.375 1.46875 -0.59375q0.84375 -0.21875 1.65625 -0.21875zm-0.609375 8.25q1.109375 0 1.828125 -0.75q0.71875 -0.765625 0.71875 -1.953125l0 -0.546875l-0.328125 0q-1.640625 0 -2.5 0.140625q-0.859375 0.140625 -1.234375 0.46875q-0.359375 0.328125 -0.359375 0.953125q0 0.734375 0.53125 1.21875q0.53125 0.46875 1.34375 0.46875zm10.981567 -0.03125q0.65625 0.046875 0.65625 0.59375q0 0.3125 -0.234375 0.46875q-0.234375 0.15625 -0.703125 0.125l-0.5 -0.03125q-1.484375 -0.125 -2.203125 -0.90625q-0.703125 -0.78125 -0.703125 -2.359375l0 -4.6875l-1.25 0q-0.328125 0 -0.5 -0.15625q-0.171875 -0.15625 -0.171875 -0.421875q0 -0.28125 0.171875 -0.4375q0.171875 -0.171875 0.5 -0.171875l1.25 0l0 -2.109375q0 -0.359375 0.203125 -0.546875q0.203125 -0.203125 0.5625 -0.203125q0.328125 0 0.53125 0.203125q0.21875 0.1875 0.21875 0.546875l0 2.109375l2.0625 0q0.296875 0 0.46875 0.171875q0.1875 0.15625 0.1875 0.4375q0 0.265625 -0.1875 0.421875q-0.171875 0.15625 -0.46875 0.15625l-2.0625 0l0 4.75q0 1.03125 0.40625 1.5q0.421875 0.453125 1.265625 0.5l0.5 0.046875zm9.186859 -1.015625q0.203125 0 0.34375 0.171875q0.15625 0.171875 0.15625 0.421875q0 0.46875 -0.65625 0.859375q-0.671875 0.390625 -1.421875 0.59375q-0.734375 0.1875 -1.453125 0.1875q-2.109375 0 -3.328125 -1.25q-1.21875 -1.25 -1.21875 -3.453125q0 -1.390625 0.53125 -2.453125q0.546875 -1.078125 1.53125 -1.671875q0.984375 -0.609375 2.234375 -0.609375q1.765625 0 2.8125 1.15625q1.046875 1.15625 1.046875 3.140625q0 0.375 -0.15625 0.546875q-0.140625 0.15625 -0.484375 0.15625l-6.0 0q0.15625 3.21875 3.03125 3.21875q0.734375 0 1.25 -0.203125q0.53125 -0.203125 1.125 -0.53125q0.484375 -0.28125 0.65625 -0.28125zm-3.265625 -6.03125q-1.203125 0 -1.921875 0.75q-0.71875 0.75 -0.84375 2.109375l5.28125 0q-0.03125 -1.375 -0.6875 -2.109375q-0.65625 -0.75 -1.828125 -0.75z" fill-rule="nonzero"/><path fill="#d9ead3" d="m361.48294 126.53827l0 0c0 -5.9230423 4.8015747 -10.724617 10.724609 -10.724617l113.19644 0c2.8443298 0 5.5722046 1.1299057 7.583435 3.1411667c2.011261 2.0112534 3.1411743 4.739105 3.1411743 7.5834503l0 42.897217c0 5.9230347 -4.8015747 10.724625 -10.724609 10.724625l-113.19644 0c-5.9230347 0 -10.724609 -4.80159 -10.724609 -10.724625z" fill-rule="evenodd"/><path stroke="#000000" stroke-width="1.0" stroke-linejoin="round" stroke-linecap="butt" stroke-dasharray="8.0,3.0" d="m361.48294 126.53827l0 0c0 -5.9230423 4.8015747 -10.724617 10.724609 -10.724617l113.19644 0c2.8443298 0 5.5722046 1.1299057 7.583435 3.1411667c2.011261 2.0112534 3.1411743 4.739105 3.1411743 7.5834503l0 42.897217c0 5.9230347 -4.8015747 10.724625 -10.724609 10.724625l-113.19644 0c-5.9230347 0 -10.724609 -4.80159 -10.724609 -10.724625z" fill-rule="evenodd"/><path fill="#000000" d="m400.80814 142.12563q0.0625 -0.234375 0.25 -0.359375q0.1875 -0.125 0.421875 -0.125q0.296875 0 0.5 0.1875q0.21875 0.171875 0.21875 0.46875q0 0.125 -0.046875 0.296875l-4.21875 11.890625q-0.09375 0.25 -0.328125 0.390625q-0.21875 0.140625 -0.5 0.140625q-0.25 0 -0.484375 -0.140625q-0.21875 -0.140625 -0.3125 -0.390625l-3.65625 -10.34375l-3.703125 10.34375q-0.078125 0.25 -0.3125 0.390625q-0.21875 0.140625 -0.484375 0.140625q-0.265625 0 -0.484375 -0.140625q-0.21875 -0.140625 -0.3125 -0.390625l-4.234375 -11.890625q-0.0625 -0.15625 -0.0625 -0.28125q0 -0.296875 0.234375 -0.484375q0.234375 -0.1875 0.53125 -0.1875q0.21875 0 0.421875 0.125q0.203125 0.125 0.265625 0.359375l3.6875 10.59375l3.71875 -10.484375q0.09375 -0.28125 0.296875 -0.421875q0.21875 -0.140625 0.453125 -0.140625q0.25 0 0.453125 0.15625q0.203125 0.15625 0.296875 0.421875l3.671875 10.515625l3.71875 -10.640625zm6.2295837 12.90625q-1.296875 0 -2.28125 -0.578125q-0.96875 -0.578125 -1.5 -1.640625q-0.53125 -1.078125 -0.53125 -2.5q0 -1.40625 0.53125 -2.484375q0.53125 -1.078125 1.5 -1.65625q0.984375 -0.578125 2.28125 -0.578125q1.28125 0 2.265625 0.578125q1.0 0.578125 1.53125 1.65625q0.53125 1.078125 0.53125 2.484375q0 1.421875 -0.53125 2.5q-0.53125 1.0625 -1.53125 1.640625q-0.984375 0.578125 -2.265625 0.578125zm0 -1.25q1.34375 0 2.0625 -0.875q0.71875 -0.890625 0.71875 -2.59375q0 -1.65625 -0.734375 -2.5625q-0.71875 -0.90625 -2.046875 -0.90625q-1.328125 0 -2.0625 0.90625q-0.71875 0.90625 -0.71875 2.5625q0 1.6875 0.71875 2.578125q0.71875 0.890625 2.0625 0.890625zm11.072968 -8.140625q0.78125 -0.0625 0.78125 0.625q0 0.296875 -0.171875 0.484375q-0.15625 0.171875 -0.5625 0.203125l-0.5625 0.0625q-1.25 0.109375 -1.859375 0.890625q-0.609375 0.765625 -0.609375 1.8125l0 4.53125q0 0.375 -0.203125 0.5625q-0.203125 0.1875 -0.53125 0.1875q-0.34375 0 -0.5625 -0.1875q-0.203125 -0.203125 -0.203125 -0.5625l0 -7.875q0 -0.34375 0.21875 -0.53125q0.21875 -0.203125 0.546875 -0.203125q0.296875 0 0.5 0.203125q0.203125 0.1875 0.203125 0.515625l0 1.046875q0.390625 -0.828125 1.109375 -1.25q0.71875 -0.421875 1.65625 -0.5l0.25 -0.015625zm2.8669128 9.359375q-0.34375 0 -0.5625 -0.1875q-0.203125 -0.203125 -0.203125 -0.5625l0 -11.84375q0 -0.359375 0.203125 -0.546875q0.21875 -0.203125 0.5625 -0.203125q0.3125 0 0.515625 0.203125q0.21875 0.1875 0.21875 0.546875l0 11.84375q0 0.359375 -0.21875 0.5625q-0.203125 0.1875 -0.515625 0.1875zm10.843872 -13.34375q0.359375 0 0.5625 0.21875q0.203125 0.203125 0.203125 0.515625l0 11.859375q0 0.34375 -0.203125 0.546875q-0.203125 0.203125 -0.5625 0.203125q-0.34375 0 -0.546875 -0.203125q-0.1875 -0.203125 -0.1875 -0.546875l0 -1.0q-0.421875 0.859375 -1.21875 1.328125q-0.78125 0.453125 -1.84375 0.453125q-1.203125 0 -2.125 -0.59375q-0.90625 -0.59375 -1.40625 -1.65625q-0.5 -1.078125 -0.5 -2.5q0 -1.40625 0.5 -2.46875q0.5 -1.0625 1.40625 -1.640625q0.921875 -0.578125 2.125 -0.578125q1.0625 0 1.84375 0.46875q0.796875 0.46875 1.21875 1.328125l0 -5.0q0 -0.34375 0.1875 -0.53125q0.203125 -0.203125 0.546875 -0.203125zm-3.5 12.125q1.328125 0 2.046875 -0.890625q0.71875 -0.90625 0.71875 -2.578125q0 -1.65625 -0.71875 -2.546875q-0.71875 -0.90625 -2.046875 -0.90625q-1.328125 0 -2.0625 0.90625q-0.734375 0.890625 -0.734375 2.515625q0 1.65625 0.734375 2.578125q0.734375 0.921875 2.0625 0.921875zm23.78064 -12.125q0.359375 0 0.546875 0.21875q0.203125 0.21875 0.203125 0.5625l0 11.8125q0 0.34375 -0.1875 0.546875q-0.1875 0.203125 -0.515625 0.203125q-0.34375 0 -0.515625 -0.203125q-0.15625 -0.203125 -0.15625 -0.546875l0 -9.53125l-4.046875 7.765625q-0.265625 0.53125 -0.765625 0.53125q-0.484375 0 -0.765625 -0.53125l-4.078125 -7.671875l0 9.4375q0 0.34375 -0.171875 0.546875q-0.171875 0.203125 -0.515625 0.203125q-0.328125 0 -0.515625 -0.203125q-0.1875 -0.203125 -0.1875 -0.546875l0 -11.8125q0 -0.34375 0.203125 -0.5625q0.203125 -0.21875 0.5625 -0.21875q0.46875 0 0.75 0.546875l4.734375 9.078125l4.6875 -9.078125q0.140625 -0.296875 0.3125 -0.421875q0.1875 -0.125 0.421875 -0.125zm7.502411 3.9375q3.421875 0 3.421875 3.578125l0 5.078125q0 0.34375 -0.203125 0.546875q-0.1875 0.203125 -0.53125 0.203125q-0.328125 0 -0.546875 -0.203125q-0.203125 -0.203125 -0.203125 -0.546875l0 -0.890625q-0.34375 0.796875 -1.078125 1.234375q-0.71875 0.4375 -1.671875 0.4375q-0.875 0 -1.625 -0.34375q-0.734375 -0.359375 -1.171875 -0.984375q-0.421875 -0.640625 -0.421875 -1.40625q0 -1.03125 0.515625 -1.59375q0.53125 -0.578125 1.71875 -0.828125q1.203125 -0.25 3.328125 -0.25l0.40625 0l0 -0.609375q0 -1.125 -0.453125 -1.640625q-0.453125 -0.53125 -1.484375 -0.53125q-1.265625 0 -2.578125 0.6875q-0.5 0.328125 -0.703125 0.328125q-0.21875 0 -0.375 -0.171875q-0.140625 -0.171875 -0.140625 -0.4375q0 -0.25 0.15625 -0.4375q0.15625 -0.203125 0.515625 -0.40625q0.640625 -0.375 1.46875 -0.59375q0.84375 -0.21875 1.65625 -0.21875zm-0.609375 8.25q1.109375 0 1.828125 -0.75q0.71875 -0.765625 0.71875 -1.953125l0 -0.546875l-0.328125 0q-1.640625 0 -2.5 0.140625q-0.859375 0.140625 -1.234375 0.46875q-0.359375 0.328125 -0.359375 0.953125q0 0.734375 0.53125 1.21875q0.53125 0.46875 1.34375 0.46875zm11.356567 -8.25q1.1875 0 2.109375 0.609375q0.921875 0.59375 1.421875 1.671875q0.5 1.0625 0.5 2.484375q0 1.40625 -0.5 2.46875q-0.5 1.046875 -1.40625 1.625q-0.90625 0.578125 -2.125 0.578125q-1.0625 0 -1.859375 -0.453125q-0.78125 -0.46875 -1.203125 -1.328125l0 4.375q0 0.34375 -0.203125 0.53125q-0.1875 0.203125 -0.53125 0.203125q-0.359375 0 -0.5625 -0.203125q-0.203125 -0.203125 -0.203125 -0.53125l0 -11.25q0 -0.328125 0.203125 -0.53125q0.203125 -0.203125 0.5625 -0.203125q0.34375 0 0.53125 0.203125q0.203125 0.203125 0.203125 0.53125l0 1.015625q0.421875 -0.859375 1.203125 -1.328125q0.796875 -0.46875 1.859375 -0.46875zm-0.296875 8.1875q1.328125 0 2.046875 -0.890625q0.734375 -0.890625 0.734375 -2.53125q0 -1.640625 -0.734375 -2.5625q-0.71875 -0.9375 -2.046875 -0.9375q-1.328125 0 -2.046875 0.90625q-0.71875 0.890625 -0.71875 2.546875q0 1.671875 0.71875 2.578125q0.71875 0.890625 2.046875 0.890625z" fill-rule="nonzero"/><path fill="#d9ead3" d="m56.97113 190.88474l0 0c0 -5.92305 4.8015747 -10.724625 10.724625 -10.724625l134.64523 0c2.844345 0 5.5722046 1.1299133 7.5834656 3.141159c2.0112457 2.011261 3.141159 4.739105 3.141159 7.5834656l0 42.8972c0 5.92305 -4.8015747 10.724625 -10.724625 10.724625l-134.64523 0c-5.92305 0 -10.724625 -4.8015747 -10.724625 -10.724625z" fill-rule="evenodd"/><path stroke="#000000" stroke-width="1.0" stroke-linejoin="round" stroke-linecap="butt" stroke-dasharray="8.0,3.0" d="m56.97113 190.88474l0 0c0 -5.92305 4.8015747 -10.724625 10.724625 -10.724625l134.64523 0c2.844345 0 5.5722046 1.1299133 7.5834656 3.141159c2.0112457 2.011261 3.141159 4.739105 3.141159 7.5834656l0 42.8972c0 5.92305 -4.8015747 10.724625 -10.724625 10.724625l-134.64523 0c-5.92305 0 -10.724625 -4.8015747 -10.724625 -10.724625z" fill-rule="evenodd"/><path fill="#000000" d="m84.93368 201.40958q0.265625 0 0.4375 0.171875q0.1875 0.15625 0.1875 0.453125l0 4.65625q0 0.4375 -0.140625 0.671875q-0.140625 0.21875 -0.515625 0.34375q-0.734375 0.328125 -1.8125 0.515625q-1.0625 0.1875 -2.125 0.1875q-1.953125 0 -3.375 -0.796875q-1.40625 -0.8125 -2.171875 -2.328125q-0.75 -1.515625 -0.75 -3.609375q0 -2.078125 0.734375 -3.578125q0.75 -1.515625 2.140625 -2.328125q1.40625 -0.8125 3.296875 -0.8125q1.3125 0 2.421875 0.40625q1.125 0.390625 1.890625 1.140625q0.3125 0.3125 0.3125 0.65625q0 0.25 -0.15625 0.453125q-0.140625 0.1875 -0.359375 0.1875q-0.234375 0 -0.53125 -0.21875q-0.96875 -0.75 -1.75 -1.03125q-0.78125 -0.296875 -1.8125 -0.296875q-2.21875 0 -3.40625 1.40625q-1.171875 1.390625 -1.171875 4.015625q0 2.65625 1.203125 4.046875q1.203125 1.390625 3.53125 1.390625q1.734375 0 3.15625 -0.515625l0 -4.0l-2.734375 0q-0.3125 0 -0.5 -0.15625q-0.1875 -0.171875 -0.1875 -0.4375q0 -0.28125 0.1875 -0.4375q0.1875 -0.15625 0.5 -0.15625l3.5 0zm7.210251 -2.46875q3.421875 0 3.421875 3.578125l0 5.078125q0 0.34375 -0.203125 0.546875q-0.1875 0.203125 -0.53125 0.203125q-0.328125 0 -0.546875 -0.203125q-0.203125 -0.203125 -0.203125 -0.546875l0 -0.890625q-0.34375 0.796875 -1.078125 1.234375q-0.71875 0.4375 -1.671875 0.4375q-0.875 0 -1.625 -0.34375q-0.734375 -0.359375 -1.171875 -0.984375q-0.421875 -0.640625 -0.421875 -1.40625q0 -1.03125 0.515625 -1.59375q0.53125 -0.578125 1.71875 -0.828125q1.203125 -0.25 3.328125 -0.25l0.40625 0l0 -0.609375q0 -1.125 -0.453125 -1.640625q-0.453125 -0.53125 -1.484375 -0.53125q-1.265625 0 -2.578125 0.6875q-0.5 0.328125 -0.703125 0.328125q-0.21875 0 -0.375 -0.171875q-0.140625 -0.171875 -0.140625 -0.4375q0 -0.25 0.15625 -0.4375q0.15625 -0.203125 0.515625 -0.40625q0.640625 -0.375 1.46875 -0.59375q0.84375 -0.21875 1.65625 -0.21875zm-0.609375 8.25q1.109375 0 1.828125 -0.75q0.71875 -0.765625 0.71875 -1.953125l0 -0.546875l-0.328125 0q-1.640625 0 -2.5 0.140625q-0.859375 0.140625 -1.234375 0.46875q-0.359375 0.328125 -0.359375 0.953125q0 0.734375 0.53125 1.21875q0.53125 0.46875 1.34375 0.46875zm16.903442 -8.25q3.015625 0 3.015625 3.609375l0 5.046875q0 0.359375 -0.203125 0.5625q-0.203125 0.1875 -0.546875 0.1875q-0.328125 0 -0.546875 -0.1875q-0.21875 -0.203125 -0.21875 -0.5625l0 -5.015625q0 -1.25 -0.453125 -1.8125q-0.4375 -0.5625 -1.390625 -0.5625q-1.140625 0 -1.796875 0.765625q-0.640625 0.765625 -0.640625 2.078125l0 4.546875q0 0.359375 -0.21875 0.5625q-0.21875 0.1875 -0.546875 0.1875q-0.34375 0 -0.546875 -0.1875q-0.203125 -0.203125 -0.203125 -0.5625l0 -5.015625q0 -1.25 -0.453125 -1.8125q-0.4375 -0.5625 -1.40625 -0.5625q-1.125 0 -1.796875 0.765625q-0.65625 0.765625 -0.65625 2.078125l0 4.546875q0 0.359375 -0.203125 0.5625q-0.203125 0.1875 -0.53125 0.1875q-0.34375 0 -0.5625 -0.1875q-0.203125 -0.203125 -0.203125 -0.5625l0 -7.875q0 -0.328125 0.203125 -0.53125q0.21875 -0.203125 0.5625 -0.203125q0.3125 0 0.515625 0.203125q0.203125 0.1875 0.203125 0.515625l0 0.890625q0.40625 -0.796875 1.125 -1.21875q0.734375 -0.4375 1.6875 -0.4375q2.125 0 2.78125 1.796875q0.390625 -0.828125 1.1875 -1.3125q0.8125 -0.484375 1.84375 -0.484375zm12.817001 7.203125q0.203125 0 0.34375 0.171875q0.15625 0.171875 0.15625 0.421875q0 0.46875 -0.65625 0.859375q-0.671875 0.390625 -1.421875 0.59375q-0.734375 0.1875 -1.453125 0.1875q-2.109375 0 -3.328125 -1.25q-1.21875 -1.25 -1.21875 -3.453125q0 -1.390625 0.53125 -2.453125q0.546875 -1.078125 1.53125 -1.671875q0.984375 -0.609375 2.234375 -0.609375q1.765625 0 2.8125 1.15625q1.046875 1.15625 1.046875 3.140625q0 0.375 -0.15625 0.546875q-0.140625 0.15625 -0.484375 0.15625l-6.0 0q0.15625 3.21875 3.03125 3.21875q0.734375 0 1.25 -0.203125q0.53125 -0.203125 1.125 -0.53125q0.484375 -0.28125 0.65625 -0.28125zm-3.265625 -6.03125q-1.203125 0 -1.921875 0.75q-0.71875 0.75 -0.84375 2.109375l5.28125 0q-0.03125 -1.375 -0.6875 -2.109375q-0.65625 -0.75 -1.828125 -0.75zm13.926399 8.265625q-0.859375 0 -1.640625 -0.203125q-0.765625 -0.203125 -1.359375 -0.578125q-0.328125 -0.21875 -0.46875 -0.40625q-0.140625 -0.203125 -0.140625 -0.484375q0 -0.25 0.140625 -0.40625q0.140625 -0.15625 0.359375 -0.15625q0.21875 0 0.65625 0.28125q0.5625 0.328125 1.109375 0.53125q0.546875 0.203125 1.375 0.203125q1.0 0 1.5625 -0.359375q0.5625 -0.359375 0.5625 -1.03125q0 -0.40625 -0.21875 -0.65625q-0.203125 -0.25 -0.703125 -0.4375q-0.5 -0.203125 -1.46875 -0.421875q-1.640625 -0.34375 -2.359375 -0.9375q-0.703125 -0.609375 -0.703125 -1.625q0 -0.8125 0.4375 -1.421875q0.453125 -0.609375 1.25 -0.96875q0.796875 -0.359375 1.796875 -0.359375q0.734375 0 1.40625 0.203125q0.6875 0.1875 1.203125 0.546875q0.640625 0.453125 0.640625 0.9375q0 0.234375 -0.15625 0.40625q-0.140625 0.171875 -0.34375 0.171875q-0.234375 0 -0.671875 -0.328125q-0.53125 -0.328125 -1.0 -0.515625q-0.453125 -0.1875 -1.140625 -0.1875q-0.890625 0 -1.421875 0.390625q-0.53125 0.390625 -0.53125 1.046875q0 0.40625 0.1875 0.65625q0.203125 0.25 0.65625 0.453125q0.46875 0.203125 1.328125 0.375q1.265625 0.28125 1.96875 0.625q0.703125 0.328125 1.0 0.8125q0.296875 0.484375 0.296875 1.234375q0 1.171875 -1.0 1.890625q-0.984375 0.71875 -2.609375 0.71875zm10.002289 -1.21875q0.65625 0.046875 0.65625 0.59375q0 0.3125 -0.234375 0.46875q-0.234375 0.15625 -0.703125 0.125l-0.5 -0.03125q-1.484375 -0.125 -2.203125 -0.90625q-0.703125 -0.78125 -0.703125 -2.359375l0 -4.6875l-1.25 0q-0.328125 0 -0.5 -0.15625q-0.171875 -0.15625 -0.171875 -0.421875q0 -0.28125 0.171875 -0.4375q0.171875 -0.171875 0.5 -0.171875l1.25 0l0 -2.109375q0 -0.359375 0.203125 -0.546875q0.203125 -0.203125 0.5625 -0.203125q0.328125 0 0.53125 0.203125q0.21875 0.1875 0.21875 0.546875l0 2.109375l2.0625 0q0.296875 0 0.46875 0.171875q0.1875 0.15625 0.1875 0.4375q0 0.265625 -0.1875 0.421875q-0.171875 0.15625 -0.46875 0.15625l-2.0625 0l0 4.75q0 1.03125 0.40625 1.5q0.421875 0.453125 1.265625 0.5l0.5 0.046875zm5.8587494 -8.21875q3.421875 0 3.421875 3.578125l0 5.078125q0 0.34375 -0.203125 0.546875q-0.1875 0.203125 -0.53125 0.203125q-0.328125 0 -0.546875 -0.203125q-0.203125 -0.203125 -0.203125 -0.546875l0 -0.890625q-0.34375 0.796875 -1.078125 1.234375q-0.71875 0.4375 -1.671875 0.4375q-0.875 0 -1.625 -0.34375q-0.734375 -0.359375 -1.171875 -0.984375q-0.421875 -0.640625 -0.421875 -1.40625q0 -1.03125 0.515625 -1.59375q0.53125 -0.578125 1.71875 -0.828125q1.203125 -0.25 3.328125 -0.25l0.40625 0l0 -0.609375q0 -1.125 -0.453125 -1.640625q-0.453125 -0.53125 -1.484375 -0.53125q-1.265625 0 -2.578125 0.6875q-0.5 0.328125 -0.703125 0.328125q-0.21875 0 -0.375 -0.171875q-0.140625 -0.171875 -0.140625 -0.4375q0 -0.25 0.15625 -0.4375q0.15625 -0.203125 0.515625 -0.40625q0.640625 -0.375 1.46875 -0.59375q0.84375 -0.21875 1.65625 -0.21875zm-0.609375 8.25q1.109375 0 1.828125 -0.75q0.71875 -0.765625 0.71875 -1.953125l0 -0.546875l-0.328125 0q-1.640625 0 -2.5 0.140625q-0.859375 0.140625 -1.234375 0.46875q-0.359375 0.328125 -0.359375 0.953125q0 0.734375 0.53125 1.21875q0.53125 0.46875 1.34375 0.46875zm10.981567 -0.03125q0.65625 0.046875 0.65625 0.59375q0 0.3125 -0.234375 0.46875q-0.234375 0.15625 -0.703125 0.125l-0.5 -0.03125q-1.484375 -0.125 -2.203125 -0.90625q-0.703125 -0.78125 -0.703125 -2.359375l0 -4.6875l-1.25 0q-0.328125 0 -0.5 -0.15625q-0.171875 -0.15625 -0.171875 -0.421875q0 -0.28125 0.171875 -0.4375q0.171875 -0.171875 0.5 -0.171875l1.25 0l0 -2.109375q0 -0.359375 0.203125 -0.546875q0.203125 -0.203125 0.5625 -0.203125q0.328125 0 0.53125 0.203125q0.21875 0.1875 0.21875 0.546875l0 2.109375l2.0625 0q0.296875 0 0.46875 0.171875q0.1875 0.15625 0.1875 0.4375q0 0.265625 -0.1875 0.421875q-0.171875 0.15625 -0.46875 0.15625l-2.0625 0l0 4.75q0 1.03125 0.40625 1.5q0.421875 0.453125 1.265625 0.5l0.5 0.046875zm9.186874 -1.015625q0.203125 0 0.34375 0.171875q0.15625 0.171875 0.15625 0.421875q0 0.46875 -0.65625 0.859375q-0.671875 0.390625 -1.421875 0.59375q-0.734375 0.1875 -1.453125 0.1875q-2.109375 0 -3.328125 -1.25q-1.21875 -1.25 -1.21875 -3.453125q0 -1.390625 0.53125 -2.453125q0.546875 -1.078125 1.53125 -1.671875q0.984375 -0.609375 2.234375 -0.609375q1.765625 0 2.8125 1.15625q1.046875 1.15625 1.046875 3.140625q0 0.375 -0.15625 0.546875q-0.140625 0.15625 -0.484375 0.15625l-6.0 0q0.15625 3.21875 3.03125 3.21875q0.734375 0 1.25 -0.203125q0.53125 -0.203125 1.125 -0.53125q0.484375 -0.28125 0.65625 -0.28125zm-3.265625 -6.03125q-1.203125 0 -1.921875 0.75q-0.71875 0.75 -0.84375 2.109375l5.28125 0q-0.03125 -1.375 -0.6875 -2.109375q-0.65625 -0.75 -1.828125 -0.75zm14.879532 -3.8125q-0.984375 0.0625 -1.484375 0.625q-0.5 0.546875 -0.5 1.640625l0 0.609375l2.0625 0q0.3125 0 0.484375 0.171875q0.171875 0.15625 0.171875 0.4375q0 0.28125 -0.171875 0.4375q-0.171875 0.140625 -0.484375 0.140625l-2.0625 0l0 7.234375q0 0.359375 -0.21875 0.5625q-0.21875 0.1875 -0.53125 0.1875q-0.34375 0 -0.5625 -0.1875q-0.203125 -0.203125 -0.203125 -0.5625l0 -7.234375l-1.25 0q-0.328125 0 -0.5 -0.15625q-0.171875 -0.15625 -0.171875 -0.421875q0 -0.28125 0.171875 -0.4375q0.171875 -0.171875 0.5 -0.171875l1.25 0l0 -0.34375q0 -1.671875 0.828125 -2.625q0.84375 -0.96875 2.421875 -1.09375l0.484375 -0.03125q0.484375 -0.03125 0.6875 0.09375q0.21875 0.125 0.21875 0.46875q0 0.53125 -0.65625 0.609375l-0.484375 0.046875zm5.7915344 12.078125q-1.296875 0 -2.28125 -0.578125q-0.96875 -0.578125 -1.5 -1.640625q-0.53125 -1.078125 -0.53125 -2.5q0 -1.40625 0.53125 -2.484375q0.53125 -1.078125 1.5 -1.65625q0.984375 -0.578125 2.28125 -0.578125q1.28125 0 2.265625 0.578125q1.0 0.578125 1.53125 1.65625q0.53125 1.078125 0.53125 2.484375q0 1.421875 -0.53125 2.5q-0.53125 1.0625 -1.53125 1.640625q-0.984375 0.578125 -2.265625 0.578125zm0 -1.25q1.34375 0 2.0625 -0.875q0.71875 -0.890625 0.71875 -2.59375q0 -1.65625 -0.734375 -2.5625q-0.71875 -0.90625 -2.046875 -0.90625q-1.328125 0 -2.0625 0.90625q-0.71875 0.90625 -0.71875 2.5625q0 1.6875 0.71875 2.578125q0.71875 0.890625 2.0625 0.890625zm11.072968 -8.140625q0.78125 -0.0625 0.78125 0.625q0 0.296875 -0.171875 0.484375q-0.15625 0.171875 -0.5625 0.203125l-0.5625 0.0625q-1.25 0.109375 -1.859375 0.890625q-0.609375 0.765625 -0.609375 1.8125l0 4.53125q0 0.375 -0.203125 0.5625q-0.203125 0.1875 -0.53125 0.1875q-0.34375 0 -0.5625 -0.1875q-0.203125 -0.203125 -0.203125 -0.5625l0 -7.875q0 -0.34375 0.21875 -0.53125q0.21875 -0.203125 0.546875 -0.203125q0.296875 0 0.5 0.203125q0.203125 0.1875 0.203125 0.515625l0 1.046875q0.390625 -0.828125 1.109375 -1.25q0.71875 -0.421875 1.65625 -0.5l0.25 -0.015625z" fill-rule="nonzero"/><path fill="#000000" d="m115.61275 229.15958q0.65625 0.046875 0.65625 0.59375q0 0.3125 -0.234375 0.46875q-0.234375 0.15625 -0.703125 0.125l-0.5 -0.03125q-1.484375 -0.125 -2.203125 -0.90625q-0.703125 -0.78125 -0.703125 -2.359375l0 -4.6875l-1.25 0q-0.328125 0 -0.5 -0.15625q-0.171875 -0.15625 -0.171875 -0.421875q0 -0.28125 0.171875 -0.4375q0.171875 -0.171875 0.5 -0.171875l1.25 0l0 -2.109375q0 -0.359375 0.203125 -0.546875q0.203125 -0.203125 0.5625 -0.203125q0.328125 0 0.53125 0.203125q0.21875 0.1875 0.21875 0.546875l0 2.109375l2.0625 0q0.296875 0 0.46875 0.171875q0.1875 0.15625 0.1875 0.4375q0 0.265625 -0.1875 0.421875q-0.171875 0.15625 -0.46875 0.15625l-2.0625 0l0 4.75q0 1.03125 0.40625 1.5q0.421875 0.453125 1.265625 0.5l0.5 0.046875zm9.046249 -8.171875q0.359375 0 0.546875 0.203125q0.203125 0.203125 0.203125 0.53125l0 7.890625q0 0.328125 -0.203125 0.53125q-0.1875 0.203125 -0.546875 0.203125q-0.328125 0 -0.53125 -0.1875q-0.1875 -0.203125 -0.1875 -0.515625l0 -0.9375q-0.4375 0.8125 -1.21875 1.25q-0.765625 0.421875 -1.734375 0.421875q-1.625 0 -2.453125 -0.890625q-0.8125 -0.90625 -0.8125 -2.6875l0 -5.078125q0 -0.328125 0.203125 -0.53125q0.203125 -0.203125 0.5625 -0.203125q0.359375 0 0.546875 0.203125q0.203125 0.203125 0.203125 0.53125l0 5.046875q0 1.203125 0.484375 1.78125q0.484375 0.5625 1.53125 0.5625q1.1875 0 1.90625 -0.765625q0.734375 -0.78125 0.734375 -2.046875l0 -4.578125q0 -0.328125 0.203125 -0.53125q0.21875 -0.203125 0.5625 -0.203125zm8.059906 0q0.78125 -0.0625 0.78125 0.625q0 0.296875 -0.171875 0.484375q-0.15625 0.171875 -0.5625 0.203125l-0.5625 0.0625q-1.25 0.109375 -1.859375 0.890625q-0.609375 0.765625 -0.609375 1.8125l0 4.53125q0 0.375 -0.203125 0.5625q-0.203125 0.1875 -0.53125 0.1875q-0.34375 0 -0.5625 -0.1875q-0.203125 -0.203125 -0.203125 -0.5625l0 -7.875q0 -0.34375 0.21875 -0.53125q0.21875 -0.203125 0.546875 -0.203125q0.296875 0 0.5 0.203125q0.203125 0.1875 0.203125 0.515625l0 1.046875q0.390625 -0.828125 1.109375 -1.25q0.71875 -0.421875 1.65625 -0.5l0.25 -0.015625zm6.663788 -0.046875q3.265625 0 3.265625 3.609375l0 5.046875q0 0.359375 -0.203125 0.5625q-0.1875 0.1875 -0.546875 0.1875q-0.34375 0 -0.5625 -0.1875q-0.203125 -0.203125 -0.203125 -0.5625l0 -4.953125q0 -1.28125 -0.5 -1.859375q-0.484375 -0.578125 -1.5625 -0.578125q-1.25 0 -2.0 0.765625q-0.75 0.765625 -0.75 2.078125l0 4.546875q0 0.359375 -0.203125 0.5625q-0.1875 0.1875 -0.53125 0.1875q-0.359375 0 -0.5625 -0.1875q-0.203125 -0.203125 -0.203125 -0.5625l0 -7.875q0 -0.328125 0.203125 -0.53125q0.203125 -0.203125 0.5625 -0.203125q0.328125 0 0.515625 0.203125q0.203125 0.203125 0.203125 0.515625l0 0.953125q0.453125 -0.84375 1.25 -1.28125q0.796875 -0.4375 1.828125 -0.4375zm18.61319 8.03125q0.34375 0 0.53125 0.171875q0.1875 0.15625 0.1875 0.453125q0 0.328125 -0.1875 0.5q-0.171875 0.15625 -0.53125 0.15625l-6.171875 0q-0.34375 0 -0.53125 -0.15625q-0.171875 -0.171875 -0.171875 -0.5q0 -0.296875 0.1875 -0.453125q0.1875 -0.171875 0.515625 -0.171875l2.3125 0l0 -10.0l-2.03125 1.3125q-0.140625 0.09375 -0.296875 0.09375q-0.265625 0 -0.46875 -0.234375q-0.1875 -0.25 -0.1875 -0.53125q0 -0.390625 0.296875 -0.546875l2.84375 -1.859375q0.3125 -0.203125 0.65625 -0.203125q0.3125 0 0.515625 0.21875q0.203125 0.203125 0.203125 0.5625l0 11.1875l2.328125 0z" fill-rule="nonzero"/><path fill="#d9ead3" d="m573.1811 190.88474l0 0c0 -5.92305 4.8015747 -10.724625 10.724609 -10.724625l240.44055 0c2.8443604 0 5.5722046 1.1299133 7.583435 3.141159c2.0112915 2.011261 3.1411743 4.739105 3.1411743 7.5834656l0 42.8972c0 5.92305 -4.8015747 10.724625 -10.724609 10.724625l-240.44055 0c-5.9230347 0 -10.724609 -4.8015747 -10.724609 -10.724625z" fill-rule="evenodd"/><path stroke="#000000" stroke-width="1.0" stroke-linejoin="round" stroke-linecap="butt" d="m573.1811 190.88474l0 0c0 -5.92305 4.8015747 -10.724625 10.724609 -10.724625l240.44055 0c2.8443604 0 5.5722046 1.1299133 7.583435 3.141159c2.0112915 2.011261 3.1411743 4.739105 3.1411743 7.5834656l0 42.8972c0 5.92305 -4.8015747 10.724625 -10.724609 10.724625l-240.44055 0c-5.9230347 0 -10.724609 -4.8015747 -10.724609 -10.724625z" fill-rule="evenodd"/><path fill="#000000" d="m593.9228 208.25333l0 -9.0625l1.265625 0l0.140625 1.546875l0.0625 0q0.71875 -0.765625 1.53125 -1.265625q0.828125 -0.515625 1.890625 -0.515625q1.625 0 2.375 0.9375q0.75 0.921875 0.75 2.71875l0 5.640625l-1.515625 0l0 -5.421875q0 -1.296875 -0.5 -1.921875q-0.484375 -0.625 -1.59375 -0.625q-0.40625 0 -0.765625 0.109375q-0.34375 0.09375 -0.6875 0.3125q-0.328125 0.203125 -0.6875 0.515625q-0.34375 0.296875 -0.734375 0.703125l0 6.328125l-1.53125 0zm15.615662 0.21875q-1.03125 0 -1.921875 -0.3125q-0.875 -0.3125 -1.546875 -0.921875q-0.65625 -0.625 -1.046875 -1.515625q-0.375 -0.890625 -0.375 -2.015625q0 -1.109375 0.375 -1.984375q0.390625 -0.875 1.03125 -1.484375q0.65625 -0.625 1.484375 -0.953125q0.828125 -0.328125 1.734375 -0.328125q0.96875 0 1.734375 0.3125q0.78125 0.3125 1.3125 0.875q0.546875 0.546875 0.8125 1.34375q0.28125 0.78125 0.28125 1.734375q0 0.25 -0.015625 0.5q-0.015625 0.234375 -0.046875 0.421875l-7.15625 0q0.15625 1.546875 1.125 2.328125q0.984375 0.78125 2.40625 0.78125q0.8125 0 1.46875 -0.234375q0.671875 -0.234375 1.296875 -0.625l0.546875 1.0q-0.65625 0.453125 -1.53125 0.765625q-0.875 0.3125 -1.96875 0.3125zm-0.21875 -8.296875q-0.5625 0 -1.078125 0.1875q-0.515625 0.1875 -0.921875 0.53125q-0.40625 0.34375 -0.6875 0.875q-0.28125 0.515625 -0.390625 1.1875l5.78125 0q-0.09375 -1.40625 -0.8125 -2.09375q-0.71875 -0.6875 -1.890625 -0.6875zm6.4437256 8.078125l3.453125 -4.703125l-3.1875 -4.359375l1.703125 0l1.4375 1.984375q0.234375 0.375 0.5 0.78125q0.28125 0.390625 0.5625 0.75l0.078125 0q0.25 -0.359375 0.515625 -0.765625q0.265625 -0.421875 0.5 -0.796875l1.359375 -1.953125l1.625 0l-3.21875 4.484375l3.46875 4.578125l-1.6875 0l-1.578125 -2.09375q-0.28125 -0.390625 -0.59375 -0.8125q-0.296875 -0.4375 -0.609375 -0.828125l-0.0625 0q-0.28125 0.40625 -0.5625 0.8125q-0.28125 0.40625 -0.5625 0.828125l-1.5 2.09375l-1.640625 0zm17.350037 0.21875q-0.984375 0 -1.65625 -0.265625q-0.671875 -0.265625 -1.078125 -0.765625q-0.40625 -0.5 -0.59375 -1.1875q-0.171875 -0.6875 -0.171875 -1.53125l0 -4.28125l-2.5625 0l0 -1.15625l2.625 -0.09375l0.203125 -2.921875l1.265625 0l0 2.921875l4.453125 0l0 1.25l-4.453125 0l0 4.3125q0 0.609375 0.109375 1.0625q0.109375 0.453125 0.375 0.78125q0.265625 0.3125 0.703125 0.46875q0.453125 0.15625 1.109375 0.15625q0.65625 0 1.171875 -0.109375q0.515625 -0.109375 1.0 -0.296875l0.34375 1.125q-0.609375 0.21875 -1.296875 0.375q-0.6875 0.15625 -1.546875 0.15625zm4.9749756 2.390625l0 -1.328125l8.953125 0l0 1.328125l-8.953125 0zm17.412537 -2.390625q-0.984375 0 -1.65625 -0.265625q-0.671875 -0.265625 -1.078125 -0.765625q-0.40625 -0.5 -0.59375 -1.1875q-0.171875 -0.6875 -0.171875 -1.53125l0 -4.28125l-2.5625 0l0 -1.15625l2.625 -0.09375l0.203125 -2.921875l1.265625 0l0 2.921875l4.453125 0l0 1.25l-4.453125 0l0 4.3125q0 0.609375 0.109375 1.0625q0.109375 0.453125 0.375 0.78125q0.265625 0.3125 0.703125 0.46875q0.453125 0.15625 1.109375 0.15625q0.65625 0 1.171875 -0.109375q0.515625 -0.109375 1.0 -0.296875l0.34375 1.125q-0.609375 0.21875 -1.296875 0.375q-0.6875 0.15625 -1.546875 0.15625zm8.443726 0q-1.640625 0 -2.40625 -0.921875q-0.75 -0.921875 -0.75 -2.734375l0 -5.625l1.546875 0l0 5.421875q0 1.296875 0.46875 1.921875q0.484375 0.625 1.625 0.625q0.78125 0 1.40625 -0.40625q0.640625 -0.40625 1.40625 -1.28125l0 -6.28125l1.53125 0l0 9.0625l-1.25 0l-0.125 -1.578125l-0.078125 0q-0.6875 0.796875 -1.5 1.296875q-0.8125 0.5 -1.875 0.5zm9.318787 -0.21875l0 -9.0625l1.28125 0l0.125 2.140625l0.046875 0q0.71875 -1.09375 1.75 -1.734375q1.03125 -0.640625 2.3125 -0.640625q0.5 0 0.921875 0.09375q0.4375 0.078125 0.859375 0.28125l-0.359375 1.328125q-0.484375 -0.171875 -0.8125 -0.234375q-0.3125 -0.078125 -0.859375 -0.078125q-1.03125 0 -1.96875 0.59375q-0.9375 0.578125 -1.765625 2.0l0 5.3125l-1.53125 0zm10.209351 0l0 -9.0625l1.265625 0l0.140625 1.546875l0.0625 0q0.71875 -0.765625 1.53125 -1.265625q0.828125 -0.515625 1.890625 -0.515625q1.625 0 2.375 0.9375q0.75 0.921875 0.75 2.71875l0 5.640625l-1.515625 0l0 -5.421875q0 -1.296875 -0.5 -1.921875q-0.484375 -0.625 -1.59375 -0.625q-0.40625 0 -0.765625 0.109375q-0.34375 0.09375 -0.6875 0.3125q-0.328125 0.203125 -0.6875 0.515625q-0.34375 0.296875 -0.734375 0.703125l0 6.328125l-1.53125 0zm17.537537 3.28125q-1.9375 -1.515625 -3.078125 -3.640625q-1.125 -2.125 -1.125 -4.828125q0 -2.703125 1.125 -4.828125q1.140625 -2.125 3.078125 -3.640625l0.84375 0.78125q-1.890625 1.59375 -2.78125 3.453125q-0.875 1.859375 -0.875 4.234375q0 2.375 0.875 4.25q0.890625 1.859375 2.78125 3.4375l-0.84375 0.78125zm5.2406006 -3.28125l-1.96875 -9.0625l1.515625 0l1.09375 5.25q0.125 0.65625 0.21875 1.265625q0.09375 0.59375 0.1875 1.234375l0.078125 0q0.09375 -0.640625 0.234375 -1.25q0.140625 -0.609375 0.28125 -1.25l1.125 -4.6875l1.53125 0l1.078125 4.6875q0.15625 0.65625 0.3125 1.265625q0.15625 0.59375 0.25 1.234375l0.078125 0q0.109375 -0.640625 0.1875 -1.234375q0.078125 -0.609375 0.21875 -1.265625l1.078125 -5.25l1.421875 0l-1.9375 9.0625l-1.984375 0l-1.046875 -4.328125q-0.21875 -0.953125 -0.4375 -2.6875l-0.078125 0q-0.234375 1.734375 -0.453125 2.6875l-1.0 4.328125l-1.984375 0zm14.662537 0.21875q-0.890625 0 -1.703125 -0.3125q-0.8125 -0.3125 -1.4375 -0.921875q-0.609375 -0.609375 -0.96875 -1.484375q-0.359375 -0.890625 -0.359375 -2.015625q0 -1.140625 0.359375 -2.015625q0.359375 -0.890625 0.96875 -1.5q0.625 -0.625 1.4375 -0.9375q0.8125 -0.328125 1.703125 -0.328125q0.90625 0 1.703125 0.328125q0.8125 0.3125 1.421875 0.9375q0.625 0.609375 0.984375 1.5q0.375 0.875 0.375 2.015625q0 1.125 -0.375 2.015625q-0.359375 0.875 -0.984375 1.484375q-0.609375 0.609375 -1.421875 0.921875q-0.796875 0.3125 -1.703125 0.3125zm0 -1.265625q0.65625 0 1.1875 -0.25q0.53125 -0.25 0.90625 -0.703125q0.390625 -0.46875 0.59375 -1.09375q0.203125 -0.640625 0.203125 -1.421875q0 -0.78125 -0.203125 -1.421875q-0.203125 -0.640625 -0.59375 -1.109375q-0.375 -0.46875 -0.90625 -0.71875q-0.53125 -0.25 -1.1875 -0.25q-0.65625 0 -1.1875 0.25q-0.53125 0.25 -0.921875 0.71875q-0.375 0.46875 -0.578125 1.109375q-0.203125 0.640625 -0.203125 1.421875q0 0.78125 0.203125 1.421875q0.203125 0.625 0.578125 1.09375q0.390625 0.453125 0.921875 0.703125q0.53125 0.25 1.1875 0.25zm8.318726 1.046875l0 -9.0625l1.28125 0l0.125 2.140625l0.046875 0q0.71875 -1.09375 1.75 -1.734375q1.03125 -0.640625 2.3125 -0.640625q0.5 0 0.921875 0.09375q0.4375 0.078125 0.859375 0.28125l-0.359375 1.328125q-0.484375 -0.171875 -0.8125 -0.234375q-0.3125 -0.078125 -0.859375 -0.078125q-1.03125 0 -1.96875 0.59375q-0.9375 0.578125 -1.765625 2.0l0 5.3125l-1.53125 0zm16.068787 0.21875q-1.453125 0 -2.21875 -0.8125q-0.765625 -0.828125 -0.765625 -2.453125l0 -8.984375l-3.234375 0l0 -1.25l4.765625 0l0 10.359375q0 1.0 0.484375 1.4375q0.484375 0.4375 1.296875 0.4375q0.8125 0 1.703125 -0.40625l0.390625 1.140625q-0.625 0.25 -1.15625 0.390625q-0.515625 0.140625 -1.265625 0.140625zm8.662476 0q-0.90625 0 -1.625 -0.3125q-0.71875 -0.3125 -1.25 -0.921875q-0.515625 -0.609375 -0.796875 -1.484375q-0.265625 -0.875 -0.265625 -2.015625q0 -1.09375 0.34375 -1.984375q0.34375 -0.890625 0.90625 -1.5q0.578125 -0.625 1.3125 -0.953125q0.75 -0.34375 1.5625 -0.34375q0.8125 0 1.453125 0.3125q0.640625 0.3125 1.25 0.875l0.046875 0l-0.078125 -1.6875l0 -3.484375l1.53125 0l0 13.28125l-1.265625 0l-0.125 -1.1875l-0.0625 0q-0.5625 0.578125 -1.34375 1.0q-0.765625 0.40625 -1.59375 0.40625zm0.3125 -1.28125q1.34375 0 2.546875 -1.359375l0 -4.515625q-0.609375 -0.578125 -1.203125 -0.8125q-0.578125 -0.25 -1.171875 -0.25q-0.609375 0 -1.125 0.25q-0.5 0.25 -0.890625 0.71875q-0.375 0.453125 -0.609375 1.09375q-0.21875 0.625 -0.21875 1.40625q0 1.640625 0.703125 2.5625q0.703125 0.90625 1.96875 0.90625zm6.9437866 3.671875l0 -1.328125l8.953125 0l0 1.328125l-8.953125 0zm11.146851 -2.609375l0 -9.0625l1.234375 0l0.125 1.1875l0.046875 0q0.34375 -0.625 0.8125 -1.015625q0.46875 -0.40625 1.25 -0.40625q1.328125 0 1.71875 1.578125q0.390625 -0.734375 0.859375 -1.15625q0.484375 -0.421875 1.265625 -0.421875q0.953125 0 1.484375 0.71875q0.53125 0.71875 0.53125 2.078125l0 6.5l-1.53125 0l0 -6.375q0 -1.59375 -0.96875 -1.59375q-0.484375 0 -0.78125 0.34375q-0.296875 0.34375 -0.671875 1.0625l0 6.5625l-1.421875 0l0 -6.375q0 -0.78125 -0.21875 -1.1875q-0.203125 -0.40625 -0.703125 -0.40625q-0.484375 0 -0.828125 0.34375q-0.328125 0.34375 -0.671875 1.0625l0 6.5625l-1.53125 0zm14.709412 0.21875q-0.640625 0 -1.203125 -0.171875q-0.5625 -0.171875 -0.984375 -0.5q-0.40625 -0.328125 -0.65625 -0.796875q-0.234375 -0.484375 -0.234375 -1.09375q0 -0.765625 0.359375 -1.328125q0.359375 -0.578125 1.15625 -0.984375q0.796875 -0.421875 2.046875 -0.671875q1.25 -0.265625 3.0 -0.421875q-0.015625 -0.46875 -0.15625 -0.875q-0.125 -0.40625 -0.40625 -0.71875q-0.28125 -0.3125 -0.734375 -0.484375q-0.453125 -0.1875 -1.109375 -0.1875q-0.890625 0 -1.71875 0.34375q-0.8125 0.34375 -1.453125 0.734375l-0.59375 -1.046875q0.328125 -0.21875 0.78125 -0.453125q0.46875 -0.234375 0.96875 -0.421875q0.515625 -0.1875 1.09375 -0.3125q0.578125 -0.125 1.1875 -0.125q1.859375 0 2.765625 1.03125q0.90625 1.015625 0.90625 2.703125l0 5.5625l-1.25 0l-0.125 -1.234375l-0.0625 0q-0.765625 0.59375 -1.6875 1.03125q-0.921875 0.421875 -1.890625 0.421875zm0.40625 -1.21875q0.78125 0 1.53125 -0.34375q0.765625 -0.359375 1.546875 -1.0l0 -2.390625q-1.453125 0.109375 -2.4375 0.3125q-0.96875 0.203125 -1.5625 0.5q-0.59375 0.28125 -0.84375 0.65625q-0.234375 0.359375 -0.234375 0.796875q0 0.390625 0.171875 0.671875q0.171875 0.265625 0.4375 0.453125q0.265625 0.171875 0.625 0.265625q0.375 0.078125 0.765625 0.078125zm7.9281006 4.828125l0 -12.890625l1.265625 0l0.140625 1.15625l0.046875 0q0.640625 -0.59375 1.46875 -0.984375q0.828125 -0.40625 1.671875 -0.40625q0.90625 0 1.609375 0.328125q0.703125 0.328125 1.171875 0.9375q0.484375 0.609375 0.71875 1.453125q0.25 0.84375 0.25 1.90625q0 1.171875 -0.34375 2.078125q-0.328125 0.890625 -0.90625 1.53125q-0.5625 0.640625 -1.3125 0.96875q-0.75 0.3125 -1.5625 0.3125q-0.640625 0 -1.375 -0.296875q-0.734375 -0.3125 -1.328125 -0.875l-0.0625 0l0.078125 1.71875l0 3.0625l-1.53125 0zm3.953125 -4.890625q1.234375 0 2.015625 -0.953125q0.78125 -0.953125 0.78125 -2.65625q0 -0.734375 -0.15625 -1.34375q-0.140625 -0.625 -0.453125 -1.0625q-0.296875 -0.4375 -0.78125 -0.671875q-0.484375 -0.25 -1.15625 -0.25q-0.609375 0 -1.296875 0.328125q-0.671875 0.328125 -1.375 1.03125l0 4.515625q0.65625 0.578125 1.296875 0.828125q0.65625 0.234375 1.125 0.234375zm9.615662 5.03125l-0.4375 -0.96875q1.15625 -0.515625 1.734375 -1.265625q0.578125 -0.734375 0.625 -1.84375q-0.09375 0.03125 -0.1875 0.03125q-0.078125 0 -0.171875 0q-0.59375 0 -1.03125 -0.34375q-0.421875 -0.34375 -0.421875 -1.046875q0 -0.703125 0.4375 -1.0625q0.453125 -0.359375 1.046875 -0.359375q0.84375 0 1.265625 0.640625q0.421875 0.640625 0.421875 1.75q0 1.640625 -0.875 2.765625q-0.859375 1.125 -2.40625 1.703125z" fill-rule="nonzero"/><path fill="#000000" d="m635.9603 230.47208q-0.640625 0 -1.203125 -0.171875q-0.5625 -0.171875 -0.984375 -0.5q-0.40625 -0.328125 -0.65625 -0.796875q-0.234375 -0.484375 -0.234375 -1.09375q0 -0.765625 0.359375 -1.328125q0.359375 -0.578125 1.15625 -0.984375q0.796875 -0.421875 2.046875 -0.671875q1.25 -0.265625 3.0 -0.421875q-0.015625 -0.46875 -0.15625 -0.875q-0.125 -0.40625 -0.40625 -0.71875q-0.28125 -0.3125 -0.734375 -0.484375q-0.453125 -0.1875 -1.109375 -0.1875q-0.890625 0 -1.71875 0.34375q-0.8125 0.34375 -1.453125 0.734375l-0.59375 -1.046875q0.328125 -0.21875 0.78125 -0.453125q0.46875 -0.234375 0.96875 -0.421875q0.515625 -0.1875 1.09375 -0.3125q0.578125 -0.125 1.1875 -0.125q1.859375 0 2.765625 1.03125q0.90625 1.015625 0.90625 2.703125l0 5.5625l-1.25 0l-0.125 -1.234375l-0.0625 0q-0.765625 0.59375 -1.6875 1.03125q-0.921875 0.421875 -1.890625 0.421875zm0.40625 -1.21875q0.78125 0 1.53125 -0.34375q0.765625 -0.359375 1.546875 -1.0l0 -2.390625q-1.453125 0.109375 -2.4375 0.3125q-0.96875 0.203125 -1.5625 0.5q-0.59375 0.28125 -0.84375 0.65625q-0.234375 0.359375 -0.234375 0.796875q0 0.390625 0.171875 0.671875q0.171875 0.265625 0.4375 0.453125q0.265625 0.171875 0.625 0.265625q0.375 0.078125 0.765625 0.078125zm10.974976 1.0l-3.828125 -9.0625l1.546875 0l2.09375 5.140625q0.28125 0.6875 0.53125 1.359375q0.25 0.65625 0.484375 1.3125l0.078125 0q0.25 -0.65625 0.484375 -1.3125q0.234375 -0.671875 0.5 -1.359375l2.09375 -5.140625l1.484375 0l-3.75 9.0625l-1.71875 0zm11.006287 0.21875q-0.640625 0 -1.203125 -0.171875q-0.5625 -0.171875 -0.984375 -0.5q-0.40625 -0.328125 -0.65625 -0.796875q-0.234375 -0.484375 -0.234375 -1.09375q0 -0.765625 0.359375 -1.328125q0.359375 -0.578125 1.15625 -0.984375q0.796875 -0.421875 2.046875 -0.671875q1.25 -0.265625 3.0 -0.421875q-0.015625 -0.46875 -0.15625 -0.875q-0.125 -0.40625 -0.40625 -0.71875q-0.28125 -0.3125 -0.734375 -0.484375q-0.453125 -0.1875 -1.109375 -0.1875q-0.890625 0 -1.71875 0.34375q-0.8125 0.34375 -1.453125 0.734375l-0.59375 -1.046875q0.328125 -0.21875 0.78125 -0.453125q0.46875 -0.234375 0.96875 -0.421875q0.515625 -0.1875 1.09375 -0.3125q0.578125 -0.125 1.1875 -0.125q1.859375 0 2.765625 1.03125q0.90625 1.015625 0.90625 2.703125l0 5.5625l-1.25 0l-0.125 -1.234375l-0.0625 0q-0.765625 0.59375 -1.6875 1.03125q-0.921875 0.421875 -1.890625 0.421875zm0.40625 -1.21875q0.78125 0 1.53125 -0.34375q0.765625 -0.359375 1.546875 -1.0l0 -2.390625q-1.453125 0.109375 -2.4375 0.3125q-0.96875 0.203125 -1.5625 0.5q-0.59375 0.28125 -0.84375 0.65625q-0.234375 0.359375 -0.234375 0.796875q0 0.390625 0.171875 0.671875q0.171875 0.265625 0.4375 0.453125q0.265625 0.171875 0.625 0.265625q0.375 0.078125 0.765625 0.078125zm13.537476 1.21875q-0.984375 0 -1.65625 -0.265625q-0.671875 -0.265625 -1.078125 -0.765625q-0.40625 -0.5 -0.59375 -1.1875q-0.171875 -0.6875 -0.171875 -1.53125l0 -4.28125l-2.5625 0l0 -1.15625l2.625 -0.09375l0.203125 -2.921875l1.265625 0l0 2.921875l4.453125 0l0 1.25l-4.453125 0l0 4.3125q0 0.609375 0.109375 1.0625q0.109375 0.453125 0.375 0.78125q0.265625 0.3125 0.703125 0.46875q0.453125 0.15625 1.109375 0.15625q0.65625 0 1.171875 -0.109375q0.515625 -0.109375 1.0 -0.296875l0.34375 1.125q-0.609375 0.21875 -1.296875 0.375q-0.6875 0.15625 -1.546875 0.15625zm8.443787 0q-0.640625 0 -1.203125 -0.171875q-0.5625 -0.171875 -0.984375 -0.5q-0.40625 -0.328125 -0.65625 -0.796875q-0.234375 -0.484375 -0.234375 -1.09375q0 -0.765625 0.359375 -1.328125q0.359375 -0.578125 1.15625 -0.984375q0.796875 -0.421875 2.046875 -0.671875q1.25 -0.265625 3.0 -0.421875q-0.015625 -0.46875 -0.15625 -0.875q-0.125 -0.40625 -0.40625 -0.71875q-0.28125 -0.3125 -0.734375 -0.484375q-0.453125 -0.1875 -1.109375 -0.1875q-0.890625 0 -1.71875 0.34375q-0.8125 0.34375 -1.453125 0.734375l-0.59375 -1.046875q0.328125 -0.21875 0.78125 -0.453125q0.46875 -0.234375 0.96875 -0.421875q0.515625 -0.1875 1.09375 -0.3125q0.578125 -0.125 1.1875 -0.125q1.859375 0 2.765625 1.03125q0.90625 1.015625 0.90625 2.703125l0 5.5625l-1.25 0l-0.125 -1.234375l-0.0625 0q-0.765625 0.59375 -1.6875 1.03125q-0.921875 0.421875 -1.890625 0.421875zm0.40625 -1.21875q0.78125 0 1.53125 -0.34375q0.765625 -0.359375 1.546875 -1.0l0 -2.390625q-1.453125 0.109375 -2.4375 0.3125q-0.96875 0.203125 -1.5625 0.5q-0.59375 0.28125 -0.84375 0.65625q-0.234375 0.359375 -0.234375 0.796875q0 0.390625 0.171875 0.671875q0.171875 0.265625 0.4375 0.453125q0.265625 0.171875 0.625 0.265625q0.375 0.078125 0.765625 0.078125zm8.912476 1.0l0 -9.0625l1.28125 0l0.125 2.140625l0.046875 0q0.71875 -1.09375 1.75 -1.734375q1.03125 -0.640625 2.3125 -0.640625q0.5 0 0.921875 0.09375q0.4375 0.078125 0.859375 0.28125l-0.359375 1.328125q-0.484375 -0.171875 -0.8125 -0.234375q-0.3125 -0.078125 -0.859375 -0.078125q-1.03125 0 -1.96875 0.59375q-0.9375 0.578125 -1.765625 2.0l0 5.3125l-1.53125 0zm9.600037 2.609375l0 -1.328125l8.953125 0l0 1.328125l-8.953125 0zm15.850037 -2.390625q-1.34375 0 -2.484375 -0.40625q-1.125 -0.421875 -1.96875 -1.0l0.703125 -1.015625q0.78125 0.5625 1.71875 0.90625q0.953125 0.328125 2.21875 0.328125q1.15625 0 1.71875 -0.421875q0.578125 -0.421875 0.578125 -1.0q0 -0.265625 -0.09375 -0.484375q-0.09375 -0.21875 -0.40625 -0.421875q-0.296875 -0.203125 -0.859375 -0.390625q-0.5625 -0.1875 -1.484375 -0.375q-1.765625 -0.375 -2.65625 -1.0q-0.875 -0.625 -0.875 -1.65625q0 -0.53125 0.234375 -1.0q0.25 -0.484375 0.71875 -0.828125q0.484375 -0.359375 1.171875 -0.546875q0.703125 -0.203125 1.640625 -0.203125q1.046875 0 2.015625 0.359375q0.96875 0.34375 1.640625 0.796875l-0.75 1.0q-0.640625 -0.4375 -1.40625 -0.6875q-0.75 -0.265625 -1.640625 -0.265625q-1.15625 0 -1.625 0.390625q-0.453125 0.390625 -0.453125 0.90625q0 0.609375 0.609375 0.921875q0.625 0.296875 2.015625 0.59375q1.140625 0.25 1.859375 0.515625q0.734375 0.265625 1.15625 0.609375q0.421875 0.328125 0.578125 0.75q0.15625 0.40625 0.15625 0.921875q0 0.5625 -0.265625 1.046875q-0.25 0.484375 -0.765625 0.859375q-0.515625 0.375 -1.28125 0.578125q-0.75 0.21875 -1.71875 0.21875zm12.756226 0q-0.984375 0 -1.65625 -0.265625q-0.671875 -0.265625 -1.078125 -0.765625q-0.40625 -0.5 -0.59375 -1.1875q-0.171875 -0.6875 -0.171875 -1.53125l0 -4.28125l-2.5625 0l0 -1.15625l2.625 -0.09375l0.203125 -2.921875l1.265625 0l0 2.921875l4.453125 0l0 1.25l-4.453125 0l0 4.3125q0 0.609375 0.109375 1.0625q0.109375 0.453125 0.375 0.78125q0.265625 0.3125 0.703125 0.46875q0.453125 0.15625 1.109375 0.15625q0.65625 0 1.171875 -0.109375q0.515625 -0.109375 1.0 -0.296875l0.34375 1.125q-0.609375 0.21875 -1.296875 0.375q-0.6875 0.15625 -1.546875 0.15625zm8.443787 0q-0.640625 0 -1.203125 -0.171875q-0.5625 -0.171875 -0.984375 -0.5q-0.40625 -0.328125 -0.65625 -0.796875q-0.234375 -0.484375 -0.234375 -1.09375q0 -0.765625 0.359375 -1.328125q0.359375 -0.578125 1.15625 -0.984375q0.796875 -0.421875 2.046875 -0.671875q1.25 -0.265625 3.0 -0.421875q-0.015625 -0.46875 -0.15625 -0.875q-0.125 -0.40625 -0.40625 -0.71875q-0.28125 -0.3125 -0.734375 -0.484375q-0.453125 -0.1875 -1.109375 -0.1875q-0.890625 0 -1.71875 0.34375q-0.8125 0.34375 -1.453125 0.734375l-0.59375 -1.046875q0.328125 -0.21875 0.78125 -0.453125q0.46875 -0.234375 0.96875 -0.421875q0.515625 -0.1875 1.09375 -0.3125q0.578125 -0.125 1.1875 -0.125q1.859375 0 2.765625 1.03125q0.90625 1.015625 0.90625 2.703125l0 5.5625l-1.25 0l-0.125 -1.234375l-0.0625 0q-0.765625 0.59375 -1.6875 1.03125q-0.921875 0.421875 -1.890625 0.421875zm0.40625 -1.21875q0.78125 0 1.53125 -0.34375q0.765625 -0.359375 1.546875 -1.0l0 -2.390625q-1.453125 0.109375 -2.4375 0.3125q-0.96875 0.203125 -1.5625 0.5q-0.59375 0.28125 -0.84375 0.65625q-0.234375 0.359375 -0.234375 0.796875q0 0.390625 0.171875 0.671875q0.171875 0.265625 0.4375 0.453125q0.265625 0.171875 0.625 0.265625q0.375 0.078125 0.765625 0.078125zm13.537476 1.21875q-0.984375 0 -1.65625 -0.265625q-0.671875 -0.265625 -1.078125 -0.765625q-0.40625 -0.5 -0.59375 -1.1875q-0.171875 -0.6875 -0.171875 -1.53125l0 -4.28125l-2.5625 0l0 -1.15625l2.625 -0.09375l0.203125 -2.921875l1.265625 0l0 2.921875l4.453125 0l0 1.25l-4.453125 0l0 4.3125q0 0.609375 0.109375 1.0625q0.109375 0.453125 0.375 0.78125q0.265625 0.3125 0.703125 0.46875q0.453125 0.15625 1.109375 0.15625q0.65625 0 1.171875 -0.109375q0.515625 -0.109375 1.0 -0.296875l0.34375 1.125q-0.609375 0.21875 -1.296875 0.375q-0.6875 0.15625 -1.546875 0.15625zm10.006287 0q-1.03125 0 -1.921875 -0.3125q-0.875 -0.3125 -1.546875 -0.921875q-0.65625 -0.625 -1.046875 -1.515625q-0.375 -0.890625 -0.375 -2.015625q0 -1.109375 0.375 -1.984375q0.390625 -0.875 1.03125 -1.484375q0.65625 -0.625 1.484375 -0.953125q0.828125 -0.328125 1.734375 -0.328125q0.96875 0 1.734375 0.3125q0.78125 0.3125 1.3125 0.875q0.546875 0.546875 0.8125 1.34375q0.28125 0.78125 0.28125 1.734375q0 0.25 -0.015625 0.5q-0.015625 0.234375 -0.046875 0.421875l-7.15625 0q0.15625 1.546875 1.125 2.328125q0.984375 0.78125 2.40625 0.78125q0.8125 0 1.46875 -0.234375q0.671875 -0.234375 1.296875 -0.625l0.546875 1.0q-0.65625 0.453125 -1.53125 0.765625q-0.875 0.3125 -1.96875 0.3125zm-0.21875 -8.296875q-0.5625 0 -1.078125 0.1875q-0.515625 0.1875 -0.921875 0.53125q-0.40625 0.34375 -0.6875 0.875q-0.28125 0.515625 -0.390625 1.1875l5.78125 0q-0.09375 -1.40625 -0.8125 -2.09375q-0.71875 -0.6875 -1.890625 -0.6875zm8.365601 11.359375l-0.828125 -0.78125q1.875 -1.578125 2.765625 -3.4375q0.890625 -1.875 0.890625 -4.25q0 -2.375 -0.890625 -4.234375q-0.890625 -1.859375 -2.765625 -3.453125l0.828125 -0.78125q1.953125 1.515625 3.078125 3.640625q1.125 2.125 1.125 4.828125q0 2.703125 -1.125 4.828125q-1.125 2.125 -3.078125 3.640625z" fill-rule="nonzero"/><path fill="#000000" fill-opacity="0.0" d="m213.06561 212.33333l115.852875 0l0 -64.34645l32.55658 0" fill-rule="evenodd"/><path stroke="#000000" stroke-width="1.0" stroke-linejoin="round" stroke-linecap="butt" d="m213.06561 212.33333l115.852875 0l0 -64.34645l26.55658 0" fill-rule="evenodd"/><path fill="#000000" stroke="#000000" stroke-width="1.0" stroke-linecap="butt" d="m355.47507 149.63861l4.538086 -1.6517334l-4.538086 -1.6517334z" fill-rule="evenodd"/><path fill="#000000" fill-opacity="0.0" d="m496.1286 276.67978l38.52661 0l0 -64.34645l38.512756 0" fill-rule="evenodd"/><path stroke="#000000" stroke-width="1.0" stroke-linejoin="round" stroke-linecap="butt" d="m496.1286 276.67978l38.52661 0l0 -64.34645l32.512756 0" fill-rule="evenodd"/><path fill="#000000" stroke="#000000" stroke-width="1.0" stroke-linecap="butt" d="m567.16797 213.98506l4.538086 -1.6517334l-4.538086 -1.6517334z" fill-rule="evenodd"/><path fill="#000000" fill-opacity="0.0" d="m496.1286 147.98688l38.52661 0l0 64.34645l38.512756 0" fill-rule="evenodd"/><path stroke="#000000" stroke-width="1.0" stroke-linejoin="round" stroke-linecap="butt" d="m496.1286 147.98688l38.52661 0l0 64.34645l32.512756 0" fill-rule="evenodd"/><path fill="#000000" stroke="#000000" stroke-width="1.0" stroke-linecap="butt" d="m567.16797 213.98506l4.538086 -1.6517334l-4.538086 -1.6517334z" fill-rule="evenodd"/><path fill="#d9ead3" d="m915.88715 192.5645l0 0c0 -5.4591675 4.425537 -9.884705 9.884705 -9.884705l186.49829 0c2.621582 0 5.1358643 1.0414124 6.989502 2.8951569c1.8537598 1.8537445 2.8952637 4.3679657 2.8952637 6.9895477l0 39.53766c0 5.4591827 -4.425537 9.88472 -9.884766 9.88472l-186.49829 0c-5.4591675 0 -9.884705 -4.425537 -9.884705 -9.88472z" fill-rule="evenodd"/><path stroke="#000000" stroke-width="1.0" stroke-linejoin="round" stroke-linecap="butt" stroke-dasharray="4.0,3.0" d="m915.88715 192.5645l0 0c0 -5.4591675 4.425537 -9.884705 9.884705 -9.884705l186.49829 0c2.621582 0 5.1358643 1.0414124 6.989502 2.8951569c1.8537598 1.8537445 2.8952637 4.3679657 2.8952637 6.9895477l0 39.53766c0 5.4591827 -4.425537 9.88472 -9.884766 9.88472l-186.49829 0c-5.4591675 0 -9.884705 -4.425537 -9.884705 -9.88472z" fill-rule="evenodd"/><path fill="#000000" d="m937.542 208.40958q-1.875 0 -3.234375 -0.8125q-1.359375 -0.8125 -2.09375 -2.328125q-0.734375 -1.53125 -0.734375 -3.59375q0 -2.0625 0.734375 -3.578125q0.734375 -1.515625 2.09375 -2.328125q1.359375 -0.8125 3.234375 -0.8125q1.25 0 2.359375 0.40625q1.109375 0.390625 1.9375 1.140625q0.296875 0.28125 0.296875 0.65625q0 0.25 -0.15625 0.453125q-0.140625 0.1875 -0.359375 0.1875q-0.21875 0 -0.53125 -0.203125q-0.953125 -0.75 -1.734375 -1.046875q-0.765625 -0.296875 -1.78125 -0.296875q-2.15625 0 -3.328125 1.421875q-1.15625 1.40625 -1.15625 4.0q0 2.609375 1.15625 4.015625q1.171875 1.40625 3.328125 1.40625q1.0 0 1.78125 -0.296875q0.78125 -0.296875 1.734375 -1.046875q0.3125 -0.203125 0.53125 -0.203125q0.21875 0 0.359375 0.1875q0.15625 0.1875 0.15625 0.46875q0 0.375 -0.296875 0.640625q-0.828125 0.75 -1.9375 1.15625q-1.109375 0.40625 -2.359375 0.40625zm10.412415 -0.03125q-1.296875 0 -2.28125 -0.578125q-0.96875 -0.578125 -1.5 -1.640625q-0.53125 -1.078125 -0.53125 -2.5q0 -1.40625 0.53125 -2.484375q0.53125 -1.078125 1.5 -1.65625q0.984375 -0.578125 2.28125 -0.578125q1.28125 0 2.265625 0.578125q1.0 0.578125 1.53125 1.65625q0.53125 1.078125 0.53125 2.484375q0 1.421875 -0.53125 2.5q-0.53125 1.0625 -1.53125 1.640625q-0.984375 0.578125 -2.265625 0.578125zm0 -1.25q1.34375 0 2.0625 -0.875q0.71875 -0.890625 0.71875 -2.59375q0 -1.65625 -0.734375 -2.5625q-0.71875 -0.90625 -2.046875 -0.90625q-1.328125 0 -2.0625 0.90625q-0.71875 0.90625 -0.71875 2.5625q0 1.6875 0.71875 2.578125q0.71875 0.890625 2.0625 0.890625zm16.697937 -8.1875q3.015625 0 3.015625 3.609375l0 5.046875q0 0.359375 -0.203125 0.5625q-0.203125 0.1875 -0.546875 0.1875q-0.328125 0 -0.546875 -0.1875q-0.21875 -0.203125 -0.21875 -0.5625l0 -5.015625q0 -1.25 -0.453125 -1.8125q-0.4375 -0.5625 -1.390625 -0.5625q-1.140625 0 -1.796875 0.765625q-0.640625 0.765625 -0.640625 2.078125l0 4.546875q0 0.359375 -0.21875 0.5625q-0.21875 0.1875 -0.546875 0.1875q-0.34375 0 -0.546875 -0.1875q-0.203125 -0.203125 -0.203125 -0.5625l0 -5.015625q0 -1.25 -0.453125 -1.8125q-0.4375 -0.5625 -1.40625 -0.5625q-1.125 0 -1.796875 0.765625q-0.65625 0.765625 -0.65625 2.078125l0 4.546875q0 0.359375 -0.203125 0.5625q-0.203125 0.1875 -0.53125 0.1875q-0.34375 0 -0.5625 -0.1875q-0.203125 -0.203125 -0.203125 -0.5625l0 -7.875q0 -0.328125 0.203125 -0.53125q0.21875 -0.203125 0.5625 -0.203125q0.3125 0 0.515625 0.203125q0.203125 0.1875 0.203125 0.515625l0 0.890625q0.40625 -0.796875 1.125 -1.21875q0.734375 -0.4375 1.6875 -0.4375q2.125 0 2.78125 1.796875q0.390625 -0.828125 1.1875 -1.3125q0.8125 -0.484375 1.84375 -0.484375zm10.348267 0q1.1875 0 2.109375 0.609375q0.921875 0.59375 1.421875 1.671875q0.5 1.0625 0.5 2.484375q0 1.40625 -0.5 2.46875q-0.5 1.046875 -1.40625 1.625q-0.90625 0.578125 -2.125 0.578125q-1.0625 0 -1.859375 -0.453125q-0.78125 -0.46875 -1.203125 -1.328125l0 4.375q0 0.34375 -0.203125 0.53125q-0.1875 0.203125 -0.53125 0.203125q-0.359375 0 -0.5625 -0.203125q-0.203125 -0.203125 -0.203125 -0.53125l0 -11.25q0 -0.328125 0.203125 -0.53125q0.203125 -0.203125 0.5625 -0.203125q0.34375 0 0.53125 0.203125q0.203125 0.203125 0.203125 0.53125l0 1.015625q0.421875 -0.859375 1.203125 -1.328125q0.796875 -0.46875 1.859375 -0.46875zm-0.296875 8.1875q1.328125 0 2.046875 -0.890625q0.734375 -0.890625 0.734375 -2.53125q0 -1.640625 -0.734375 -2.5625q-0.71875 -0.9375 -2.046875 -0.9375q-1.328125 0 -2.046875 0.90625q-0.71875 0.890625 -0.71875 2.546875q0 1.671875 0.71875 2.578125q0.71875 0.890625 2.046875 0.890625zm13.48291 -8.140625q0.359375 0 0.546875 0.203125q0.203125 0.203125 0.203125 0.53125l0 7.890625q0 0.328125 -0.203125 0.53125q-0.1875 0.203125 -0.546875 0.203125q-0.328125 0 -0.53125 -0.1875q-0.1875 -0.203125 -0.1875 -0.515625l0 -0.9375q-0.4375 0.8125 -1.21875 1.25q-0.765625 0.421875 -1.734375 0.421875q-1.625 0 -2.453125 -0.890625q-0.8125 -0.90625 -0.8125 -2.6875l0 -5.078125q0 -0.328125 0.203125 -0.53125q0.203125 -0.203125 0.5625 -0.203125q0.359375 0 0.546875 0.203125q0.203125 0.203125 0.203125 0.53125l0 5.046875q0 1.203125 0.484375 1.78125q0.484375 0.5625 1.53125 0.5625q1.1875 0 1.90625 -0.765625q0.734375 -0.78125 0.734375 -2.046875l0 -4.578125q0 -0.328125 0.203125 -0.53125q0.21875 -0.203125 0.5625 -0.203125zm7.7630615 8.171875q0.65625 0.046875 0.65625 0.59375q0 0.3125 -0.234375 0.46875q-0.234375 0.15625 -0.703125 0.125l-0.5 -0.03125q-1.484375 -0.125 -2.203125 -0.90625q-0.703125 -0.78125 -0.703125 -2.359375l0 -4.6875l-1.25 0q-0.328125 0 -0.5 -0.15625q-0.171875 -0.15625 -0.171875 -0.421875q0 -0.28125 0.171875 -0.4375q0.171875 -0.171875 0.5 -0.171875l1.25 0l0 -2.109375q0 -0.359375 0.203125 -0.546875q0.203125 -0.203125 0.5625 -0.203125q0.328125 0 0.53125 0.203125q0.21875 0.1875 0.21875 0.546875l0 2.109375l2.0625 0q0.296875 0 0.46875 0.171875q0.1875 0.15625 0.1875 0.4375q0 0.265625 -0.1875 0.421875q-0.171875 0.15625 -0.46875 0.15625l-2.0625 0l0 4.75q0 1.03125 0.40625 1.5q0.421875 0.453125 1.265625 0.5l0.5 0.046875zm9.18689 -1.015625q0.203125 0 0.34375 0.171875q0.15625 0.171875 0.15625 0.421875q0 0.46875 -0.65625 0.859375q-0.671875 0.390625 -1.421875 0.59375q-0.734375 0.1875 -1.453125 0.1875q-2.109375 0 -3.328125 -1.25q-1.21875 -1.25 -1.21875 -3.453125q0 -1.390625 0.53125 -2.453125q0.546875 -1.078125 1.53125 -1.671875q0.984375 -0.609375 2.234375 -0.609375q1.765625 0 2.8125 1.15625q1.046875 1.15625 1.046875 3.140625q0 0.375 -0.15625 0.546875q-0.140625 0.15625 -0.484375 0.15625l-6.0 0q0.15625 3.21875 3.03125 3.21875q0.734375 0 1.25 -0.203125q0.53125 -0.203125 1.125 -0.53125q0.484375 -0.28125 0.65625 -0.28125zm-3.265625 -6.03125q-1.203125 0 -1.921875 0.75q-0.71875 0.75 -0.84375 2.109375l5.28125 0q-0.03125 -1.375 -0.6875 -2.109375q-0.65625 -0.75 -1.828125 -0.75zm13.347473 -5.109375q0.359375 0 0.5625 0.21875q0.203125 0.203125 0.203125 0.515625l0 11.859375q0 0.34375 -0.203125 0.546875q-0.203125 0.203125 -0.5625 0.203125q-0.34375 0 -0.546875 -0.203125q-0.1875 -0.203125 -0.1875 -0.546875l0 -1.0q-0.421875 0.859375 -1.21875 1.328125q-0.78125 0.453125 -1.84375 0.453125q-1.203125 0 -2.125 -0.59375q-0.90625 -0.59375 -1.40625 -1.65625q-0.5 -1.078125 -0.5 -2.5q0 -1.40625 0.5 -2.46875q0.5 -1.0625 1.40625 -1.640625q0.921875 -0.578125 2.125 -0.578125q1.0625 0 1.84375 0.46875q0.796875 0.46875 1.21875 1.328125l0 -5.0q0 -0.34375 0.1875 -0.53125q0.203125 -0.203125 0.546875 -0.203125zm-3.5 12.125q1.328125 0 2.046875 -0.890625q0.71875 -0.90625 0.71875 -2.578125q0 -1.65625 -0.71875 -2.546875q-0.71875 -0.90625 -2.046875 -0.90625q-1.328125 0 -2.0625 0.90625q-0.734375 0.890625 -0.734375 2.515625q0 1.65625 0.734375 2.578125q0.734375 0.921875 2.0625 0.921875zm11.248535 1.21875q-0.359375 0 -0.578125 -0.203125q-0.203125 -0.21875 -0.203125 -0.578125l0 -11.15625l-4.015625 0q-0.328125 0 -0.515625 -0.171875q-0.1875 -0.171875 -0.1875 -0.484375q0 -0.3125 0.1875 -0.484375q0.1875 -0.171875 0.515625 -0.171875l9.578186 0q0.328125 0 0.515625 0.171875q0.1875 0.171875 0.1875 0.484375q0 0.3125 -0.1875 0.484375q-0.1875 0.171875 -0.515625 0.171875l-4.015686 0l0 11.15625q0 0.359375 -0.203125 0.578125q-0.203125 0.203125 -0.5625 0.203125zm12.512512 -9.359375q0.359375 0 0.546875 0.203125q0.203125 0.203125 0.203125 0.53125l0 7.890625q0 0.328125 -0.203125 0.53125q-0.1875 0.203125 -0.546875 0.203125q-0.328125 0 -0.53125 -0.1875q-0.1875 -0.203125 -0.1875 -0.515625l0 -0.9375q-0.4375 0.8125 -1.21875 1.25q-0.765625 0.421875 -1.734375 0.421875q-1.625 0 -2.453125 -0.890625q-0.8125 -0.90625 -0.8125 -2.6875l0 -5.078125q0 -0.328125 0.203125 -0.53125q0.203125 -0.203125 0.5625 -0.203125q0.359375 0 0.546875 0.203125q0.203125 0.203125 0.203125 0.53125l0 5.046875q0 1.203125 0.484375 1.78125q0.484375 0.5625 1.53125 0.5625q1.1875 0 1.90625 -0.765625q0.734375 -0.78125 0.734375 -2.046875l0 -4.578125q0 -0.328125 0.203125 -0.53125q0.21875 -0.203125 0.5625 -0.203125zm8.059937 0q0.78125 -0.0625 0.78125 0.625q0 0.296875 -0.171875 0.484375q-0.15625 0.171875 -0.5625 0.203125l-0.5625 0.0625q-1.25 0.109375 -1.859375 0.890625q-0.609375 0.765625 -0.609375 1.8125l0 4.53125q0 0.375 -0.203125 0.5625q-0.203125 0.1875 -0.53125 0.1875q-0.34375 0 -0.5625 -0.1875q-0.203125 -0.203125 -0.203125 -0.5625l0 -7.875q0 -0.34375 0.21875 -0.53125q0.21875 -0.203125 0.546875 -0.203125q0.296875 0 0.5 0.203125q0.203125 0.1875 0.203125 0.515625l0 1.046875q0.390625 -0.828125 1.109375 -1.25q0.71875 -0.421875 1.65625 -0.5l0.25 -0.015625zm6.6638184 -0.046875q3.265625 0 3.265625 3.609375l0 5.046875q0 0.359375 -0.203125 0.5625q-0.1875 0.1875 -0.546875 0.1875q-0.34375 0 -0.5625 -0.1875q-0.203125 -0.203125 -0.203125 -0.5625l0 -4.953125q0 -1.28125 -0.5 -1.859375q-0.484375 -0.578125 -1.5625 -0.578125q-1.25 0 -2.0 0.765625q-0.75 0.765625 -0.75 2.078125l0 4.546875q0 0.359375 -0.203125 0.5625q-0.1875 0.1875 -0.53125 0.1875q-0.359375 0 -0.5625 -0.1875q-0.203125 -0.203125 -0.203125 -0.5625l0 -7.875q0 -0.328125 0.203125 -0.53125q0.203125 -0.203125 0.5625 -0.203125q0.328125 0 0.515625 0.203125q0.203125 0.203125 0.203125 0.515625l0 0.953125q0.453125 -0.84375 1.25 -1.28125q0.796875 -0.4375 1.828125 -0.4375zm16.28418 8.359375q0.140625 0.203125 0.140625 0.4375q0 0.265625 -0.21875 0.453125q-0.21875 0.171875 -0.5 0.171875q-0.421875 0 -0.671875 -0.375l-2.5 -3.953125q-0.484375 -0.765625 -1.015625 -1.046875q-0.515625 -0.296875 -1.40625 -0.296875l-2.34375 0l0 4.875q0 0.359375 -0.21875 0.578125q-0.203125 0.203125 -0.53125 0.203125q-0.359375 0 -0.5625 -0.203125q-0.203125 -0.21875 -0.203125 -0.578125l0 -11.71875q0 -0.34375 0.203125 -0.546875q0.21875 -0.203125 0.578125 -0.203125l4.625 0q2.140625 0 3.265625 0.953125q1.140625 0.953125 1.140625 2.796875q0 1.578125 -0.90625 2.53125q-0.90625 0.9375 -2.578125 1.140625q0.453125 0.15625 0.828125 0.5q0.375 0.328125 0.75 0.921875l2.125 3.359375zm-4.75 -5.875q1.53125 0 2.28125 -0.625q0.75 -0.640625 0.75 -1.9375q0 -1.265625 -0.75 -1.875q-0.734375 -0.625 -2.28125 -0.625l-3.765625 0l0 5.0625l3.765625 0zm14.329468 4.71875q0.203125 0 0.34375 0.171875q0.15625 0.171875 0.15625 0.421875q0 0.46875 -0.65625 0.859375q-0.671875 0.390625 -1.421875 0.59375q-0.734375 0.1875 -1.453125 0.1875q-2.109375 0 -3.328125 -1.25q-1.21875 -1.25 -1.21875 -3.453125q0 -1.390625 0.53125 -2.453125q0.546875 -1.078125 1.53125 -1.671875q0.984375 -0.609375 2.234375 -0.609375q1.765625 0 2.8125 1.15625q1.046875 1.15625 1.046875 3.140625q0 0.375 -0.15625 0.546875q-0.140625 0.15625 -0.484375 0.15625l-6.0 0q0.15625 3.21875 3.03125 3.21875q0.734375 0 1.25 -0.203125q0.53125 -0.203125 1.125 -0.53125q0.484375 -0.28125 0.65625 -0.28125zm-3.265625 -6.03125q-1.203125 0 -1.921875 0.75q-0.71875 0.75 -0.84375 2.109375l5.28125 0q-0.03125 -1.375 -0.6875 -2.109375q-0.65625 -0.75 -1.828125 -0.75zm9.113037 8.265625q-0.859375 0 -1.640625 -0.203125q-0.765625 -0.203125 -1.359375 -0.578125q-0.328125 -0.21875 -0.46875 -0.40625q-0.140625 -0.203125 -0.140625 -0.484375q0 -0.25 0.140625 -0.40625q0.140625 -0.15625 0.359375 -0.15625q0.21875 0 0.65625 0.28125q0.5625 0.328125 1.109375 0.53125q0.546875 0.203125 1.375 0.203125q1.0 0 1.5625 -0.359375q0.5625 -0.359375 0.5625 -1.03125q0 -0.40625 -0.21875 -0.65625q-0.203125 -0.25 -0.703125 -0.4375q-0.5 -0.203125 -1.46875 -0.421875q-1.640625 -0.34375 -2.359375 -0.9375q-0.703125 -0.609375 -0.703125 -1.625q0 -0.8125 0.4375 -1.421875q0.453125 -0.609375 1.25 -0.96875q0.796875 -0.359375 1.796875 -0.359375q0.734375 0 1.40625 0.203125q0.6875 0.1875 1.203125 0.546875q0.640625 0.453125 0.640625 0.9375q0 0.234375 -0.15625 0.40625q-0.140625 0.171875 -0.34375 0.171875q-0.234375 0 -0.671875 -0.328125q-0.53125 -0.328125 -1.0 -0.515625q-0.453125 -0.1875 -1.140625 -0.1875q-0.890625 0 -1.421875 0.390625q-0.53125 0.390625 -0.53125 1.046875q0 0.40625 0.1875 0.65625q0.203125 0.25 0.65625 0.453125q0.46875 0.203125 1.328125 0.375q1.265625 0.28125 1.96875 0.625q0.703125 0.328125 1.0 0.8125q0.296875 0.484375 0.296875 1.234375q0 1.171875 -1.0 1.890625q-0.984375 0.71875 -2.609375 0.71875zm12.798828 -9.390625q0.359375 0 0.546875 0.203125q0.203125 0.203125 0.203125 0.53125l0 7.890625q0 0.328125 -0.203125 0.53125q-0.1875 0.203125 -0.546875 0.203125q-0.328125 0 -0.53125 -0.1875q-0.1875 -0.203125 -0.1875 -0.515625l0 -0.9375q-0.4375 0.8125 -1.21875 1.25q-0.765625 0.421875 -1.734375 0.421875q-1.625 0 -2.453125 -0.890625q-0.8125 -0.90625 -0.8125 -2.6875l0 -5.078125q0 -0.328125 0.203125 -0.53125q0.203125 -0.203125 0.5625 -0.203125q0.359375 0 0.546875 0.203125q0.203125 0.203125 0.203125 0.53125l0 5.046875q0 1.203125 0.484375 1.78125q0.484375 0.5625 1.53125 0.5625q1.1875 0 1.90625 -0.765625q0.734375 -0.78125 0.734375 -2.046875l0 -4.578125q0 -0.328125 0.203125 -0.53125q0.21875 -0.203125 0.5625 -0.203125zm4.3411865 9.359375q-0.34375 0 -0.5625 -0.1875q-0.203125 -0.203125 -0.203125 -0.5625l0 -11.84375q0 -0.359375 0.203125 -0.546875q0.21875 -0.203125 0.5625 -0.203125q0.3125 0 0.515625 0.203125q0.21875 0.1875 0.21875 0.546875l0 11.84375q0 0.359375 -0.21875 0.5625q-0.203125 0.1875 -0.515625 0.1875zm7.899414 -1.1875q0.65625 0.046875 0.65625 0.59375q0 0.3125 -0.234375 0.46875q-0.234375 0.15625 -0.703125 0.125l-0.5 -0.03125q-1.484375 -0.125 -2.203125 -0.90625q-0.703125 -0.78125 -0.703125 -2.359375l0 -4.6875l-1.25 0q-0.328125 0 -0.5 -0.15625q-0.171875 -0.15625 -0.171875 -0.421875q0 -0.28125 0.171875 -0.4375q0.171875 -0.171875 0.5 -0.171875l1.25 0l0 -2.109375q0 -0.359375 0.203125 -0.546875q0.203125 -0.203125 0.5625 -0.203125q0.328125 0 0.53125 0.203125q0.21875 0.1875 0.21875 0.546875l0 2.109375l2.0625 0q0.296875 0 0.46875 0.171875q0.1875 0.15625 0.1875 0.4375q0 0.265625 -0.1875 0.421875q-0.171875 0.15625 -0.46875 0.15625l-2.0625 0l0 4.75q0 1.03125 0.40625 1.5q0.421875 0.453125 1.265625 0.5l0.5 0.046875z" fill-rule="nonzero"/><path fill="#000000" d="m985.5383 218.3002q-0.984375 0.0625 -1.484375 0.625q-0.5 0.546875 -0.5 1.640625l0 0.609375l2.0625 0q0.3125 0 0.484375 0.171875q0.171875 0.15625 0.171875 0.4375q0 0.28125 -0.171875 0.4375q-0.171875 0.140625 -0.484375 0.140625l-2.0625 0l0 7.234375q0 0.359375 -0.21875 0.5625q-0.21875 0.1875 -0.53125 0.1875q-0.34375 0 -0.5625 -0.1875q-0.203125 -0.203125 -0.203125 -0.5625l0 -7.234375l-1.25 0q-0.328125 0 -0.5 -0.15625q-0.171875 -0.15625 -0.171875 -0.421875q0 -0.28125 0.171875 -0.4375q0.171875 -0.171875 0.5 -0.171875l1.25 0l0 -0.34375q0 -1.671875 0.828125 -2.625q0.84375 -0.96875 2.421875 -1.09375l0.484375 -0.03125q0.484375 -0.03125 0.6875 0.09375q0.21875 0.125 0.21875 0.46875q0 0.53125 -0.65625 0.609375l-0.484375 0.046875zm5.791504 12.078125q-1.296875 0 -2.28125 -0.578125q-0.96875 -0.578125 -1.5 -1.640625q-0.53125 -1.078125 -0.53125 -2.5q0 -1.40625 0.53125 -2.484375q0.53125 -1.078125 1.5 -1.65625q0.984375 -0.578125 2.28125 -0.578125q1.28125 0 2.265625 0.578125q1.0 0.578125 1.53125 1.65625q0.53125 1.078125 0.53125 2.484375q0 1.421875 -0.53125 2.5q-0.53125 1.0625 -1.53125 1.640625q-0.984375 0.578125 -2.265625 0.578125zm0 -1.25q1.34375 0 2.0625 -0.875q0.71875 -0.890625 0.71875 -2.59375q0 -1.65625 -0.734375 -2.5625q-0.71875 -0.90625 -2.046875 -0.90625q-1.328125 0 -2.0625 0.90625q-0.71875 0.90625 -0.71875 2.5625q0 1.6875 0.71875 2.578125q0.71875 0.890625 2.0625 0.890625zm11.072998 -8.140625q0.78125 -0.0625 0.78125 0.625q0 0.296875 -0.171875 0.484375q-0.15625 0.171875 -0.5625 0.203125l-0.5625 0.0625q-1.25 0.109375 -1.859375 0.890625q-0.609375 0.765625 -0.609375 1.8125l0 4.53125q0 0.375 -0.203125 0.5625q-0.203125 0.1875 -0.53125 0.1875q-0.34375 0 -0.5625 -0.1875q-0.203125 -0.203125 -0.203125 -0.5625l0 -7.875q0 -0.34375 0.21875 -0.53125q0.21875 -0.203125 0.546875 -0.203125q0.296875 0 0.5 0.203125q0.203125 0.1875 0.203125 0.515625l0 1.046875q0.390625 -0.828125 1.109375 -1.25q0.71875 -0.421875 1.65625 -0.5l0.25 -0.015625zm11.102112 8.171875q0.65625 0.046875 0.65625 0.59375q0 0.3125 -0.234375 0.46875q-0.234375 0.15625 -0.703125 0.125l-0.5 -0.03125q-1.484375 -0.125 -2.203125 -0.90625q-0.703125 -0.78125 -0.703125 -2.359375l0 -4.6875l-1.25 0q-0.328125 0 -0.5 -0.15625q-0.171875 -0.15625 -0.171875 -0.421875q0 -0.28125 0.171875 -0.4375q0.171875 -0.171875 0.5 -0.171875l1.25 0l0 -2.109375q0 -0.359375 0.203125 -0.546875q0.203125 -0.203125 0.5625 -0.203125q0.328125 0 0.53125 0.203125q0.21875 0.1875 0.21875 0.546875l0 2.109375l2.0625 0q0.296875 0 0.46875 0.171875q0.1875 0.15625 0.1875 0.4375q0 0.265625 -0.1875 0.421875q-0.171875 0.15625 -0.46875 0.15625l-2.0625 0l0 4.75q0 1.03125 0.40625 1.5q0.421875 0.453125 1.265625 0.5l0.5 0.046875zm9.046204 -8.171875q0.359375 0 0.546875 0.203125q0.203125 0.203125 0.203125 0.53125l0 7.890625q0 0.328125 -0.203125 0.53125q-0.1875 0.203125 -0.546875 0.203125q-0.328125 0 -0.53125 -0.1875q-0.1875 -0.203125 -0.1875 -0.515625l0 -0.9375q-0.4375 0.8125 -1.21875 1.25q-0.765625 0.421875 -1.734375 0.421875q-1.625 0 -2.453125 -0.890625q-0.8125 -0.90625 -0.8125 -2.6875l0 -5.078125q0 -0.328125 0.203125 -0.53125q0.203125 -0.203125 0.5625 -0.203125q0.359375 0 0.546875 0.203125q0.203125 0.203125 0.203125 0.53125l0 5.046875q0 1.203125 0.484375 1.78125q0.484375 0.5625 1.53125 0.5625q1.1875 0 1.90625 -0.765625q0.734375 -0.78125 0.734375 -2.046875l0 -4.578125q0 -0.328125 0.203125 -0.53125q0.21875 -0.203125 0.5625 -0.203125zm8.059937 0q0.78125 -0.0625 0.78125 0.625q0 0.296875 -0.171875 0.484375q-0.15625 0.171875 -0.5625 0.203125l-0.5625 0.0625q-1.25 0.109375 -1.859375 0.890625q-0.609375 0.765625 -0.609375 1.8125l0 4.53125q0 0.375 -0.203125 0.5625q-0.203125 0.1875 -0.53125 0.1875q-0.34375 0 -0.5625 -0.1875q-0.203125 -0.203125 -0.203125 -0.5625l0 -7.875q0 -0.34375 0.21875 -0.53125q0.21875 -0.203125 0.546875 -0.203125q0.296875 0 0.5 0.203125q0.203125 0.1875 0.203125 0.515625l0 1.046875q0.390625 -0.828125 1.109375 -1.25q0.71875 -0.421875 1.65625 -0.5l0.25 -0.015625zm6.6638184 -0.046875q3.265625 0 3.265625 3.609375l0 5.046875q0 0.359375 -0.203125 0.5625q-0.1875 0.1875 -0.546875 0.1875q-0.34375 0 -0.5625 -0.1875q-0.203125 -0.203125 -0.203125 -0.5625l0 -4.953125q0 -1.28125 -0.5 -1.859375q-0.484375 -0.578125 -1.5625 -0.578125q-1.25 0 -2.0 0.765625q-0.75 0.765625 -0.75 2.078125l0 4.546875q0 0.359375 -0.203125 0.5625q-0.1875 0.1875 -0.53125 0.1875q-0.359375 0 -0.5625 -0.1875q-0.203125 -0.203125 -0.203125 -0.5625l0 -7.875q0 -0.328125 0.203125 -0.53125q0.203125 -0.203125 0.5625 -0.203125q0.328125 0 0.515625 0.203125q0.203125 0.203125 0.203125 0.515625l0 0.953125q0.453125 -0.84375 1.25 -1.28125q0.796875 -0.4375 1.828125 -0.4375zm18.92566 8.03125q0.328125 0 0.515625 0.171875q0.1875 0.15625 0.1875 0.453125q0 0.65625 -0.703125 0.65625l-7.3125 0q-0.328125 0 -0.53125 -0.1875q-0.203125 -0.203125 -0.203125 -0.484375q0 -0.359375 0.265625 -0.609375l4.484375 -4.953125q0.9375 -1.046875 1.359375 -1.875q0.421875 -0.828125 0.421875 -1.671875q0 -1.078125 -0.625 -1.65625q-0.625 -0.578125 -1.765625 -0.578125q-0.890625 0 -1.71875 0.328125q-0.8125 0.328125 -1.640625 1.0q-0.28125 0.21875 -0.515625 0.21875q-0.203125 0 -0.359375 -0.1875q-0.15625 -0.203125 -0.15625 -0.484375q0 -0.390625 0.3125 -0.625q0.75 -0.71875 1.84375 -1.125q1.109375 -0.40625 2.265625 -0.40625q1.78125 0 2.828125 0.9375q1.0625 0.921875 1.0625 2.515625q0 1.125 -0.515625 2.171875q-0.515625 1.046875 -1.6875 2.34375l-3.734375 4.046875l5.921875 0z" fill-rule="nonzero"/><path fill="#000000" fill-opacity="0.0" d="m835.07086 212.33333l40.407837 0l0 0.06300354l40.41107 0" fill-rule="evenodd"/><path stroke="#000000" stroke-width="1.0" stroke-linejoin="round" stroke-linecap="butt" d="m835.07086 212.33333l40.407837 0l0 0.06300354l34.41107 0" fill-rule="evenodd"/><path fill="#000000" stroke="#000000" stroke-width="1.0" stroke-linecap="butt" d="m909.8898 214.04807l4.538086 -1.6517334l-4.538086 -1.6517334z" fill-rule="evenodd"/><path fill="#000000" fill-opacity="0.0" d="m213.06561 212.33333l115.81131 0l0 64.34645l32.598145 0" fill-rule="evenodd"/><path stroke="#000000" stroke-width="1.0" stroke-linejoin="round" stroke-linecap="butt" d="m213.06561 212.33333l115.81131 0l0 64.34645l32.598145 0" fill-rule="evenodd"/></g></svg>