<svg xmlns="http://www.w3.org/2000/svg" viewBox="0 0 390.15 30.44"><defs><style>.cls-1{fill:#f1880c;}.cls-2{fill:#fdc533;}</style></defs><title>Asset 1</title><g id="Layer_2" data-name="Layer 2"><g id="Layer_1-2" data-name="Layer 1"><path class="cls-1" d="M7.17,2.3A3.27,3.27,0,0,1,9.72.82H23.35A3.27,3.27,0,0,1,25.91,2.3l6.82,11.8a3.28,3.28,0,0,1,0,3l-6.81,11.8a3.28,3.28,0,0,1-2.56,1.48H9.72a3.26,3.26,0,0,1-2.55-1.48L.35,17.06a3.27,3.27,0,0,1,0-3Z"/><path class="cls-1" d="M7.17,2.3A3.27,3.27,0,0,1,9.72.82H23.35A3.27,3.27,0,0,1,25.91,2.3l6.82,11.8a3.28,3.28,0,0,1,0,3l-6.81,11.8a3.28,3.28,0,0,1-2.56,1.48H9.72a3.26,3.26,0,0,1-2.55-1.48L.35,17.06a3.27,3.27,0,0,1,0-3Z"/><path class="cls-1" d="M59,6.68A7,7,0,0,0,53.42,8.9a9.28,9.28,0,0,0-1.94,6.3,8.75,8.75,0,0,0,2.15,6.34,7.69,7.69,0,0,0,5.8,2.22,9.15,9.15,0,0,0,3.29-.52,22.37,22.37,0,0,0,2.58-1.18,4.71,4.71,0,0,1,1.25,1.59A4.87,4.87,0,0,1,67,25.8a3.88,3.88,0,0,1-2.15,3.29q-2.16,1.35-6.56,1.35a19.36,19.36,0,0,1-6-.9,13.29,13.29,0,0,1-4.88-2.77A13.07,13.07,0,0,1,44.17,22,17.56,17.56,0,0,1,43,15.2a17,17,0,0,1,1.16-6.51,13.84,13.84,0,0,1,3.17-4.76A13.34,13.34,0,0,1,52,1a16.55,16.55,0,0,1,5.77-1,13.29,13.29,0,0,1,6.75,1.42,4.18,4.18,0,0,1,2.39,3.65A3.68,3.68,0,0,1,66.3,7.2a5.07,5.07,0,0,1-1.42,1.42,15.46,15.46,0,0,0-2.63-1.37A8.57,8.57,0,0,0,59,6.68Z"/><path class="cls-1" d="M69.52,15.2a17.16,17.16,0,0,1,1.16-6.53A13.17,13.17,0,0,1,78.58,1,18,18,0,0,1,90.37,1a13.71,13.71,0,0,1,4.76,2.91,13.38,13.38,0,0,1,3.2,4.76,17.16,17.16,0,0,1,1.16,6.53,17.68,17.68,0,0,1-1.14,6.56,13.23,13.23,0,0,1-3.15,4.78,13.45,13.45,0,0,1-4.76,2.91,17.38,17.38,0,0,1-6,1,17,17,0,0,1-6-1,13.29,13.29,0,0,1-4.73-3,13.67,13.67,0,0,1-3.12-4.78A17.37,17.37,0,0,1,69.52,15.2Zm8.52,0q0,4.31,1.75,6.44a6.27,6.27,0,0,0,9.42,0Q91,19.5,91,15.2T89.23,8.81a5.74,5.74,0,0,0-4.71-2.13,5.85,5.85,0,0,0-4.71,2.11Q78,10.89,78,15.2Z"/><path class="cls-1" d="M115.1,30.34q-.81,0-1.85,0t-2.15-.19q-1.11-.14-2.22-.35a11.13,11.13,0,0,1-2.06-.59,3.52,3.52,0,0,1-2.6-3.45V3.6a2.08,2.08,0,0,1,.54-1.54,3.89,3.89,0,0,1,1.49-.88,19.9,19.9,0,0,1,4.31-.88q2.27-.21,4.07-.21a23.35,23.35,0,0,1,6.7.9,13.79,13.79,0,0,1,5.16,2.77,12.49,12.49,0,0,1,3.34,4.71A17.43,17.43,0,0,1,131,15.2a17.58,17.58,0,0,1-1.14,6.6,12.74,12.74,0,0,1-3.24,4.73,13.57,13.57,0,0,1-5,2.86A21,21,0,0,1,115.1,30.34Zm-2.65-6.91q.52.1,1.28.17t1.42.07a8.87,8.87,0,0,0,3-.47,6,6,0,0,0,2.32-1.47,6.79,6.79,0,0,0,1.51-2.58,11.78,11.78,0,0,0,.54-3.81q0-4.26-2-6.41a6.87,6.87,0,0,0-5.3-2.15q-.66,0-1.35,0t-1.4.14Z"/><path class="cls-1" d="M135.74,5.3a4.35,4.35,0,0,1,1.18-3.22A4.35,4.35,0,0,1,140.15.9h15.62a5.69,5.69,0,0,1,.59,1.37,6.13,6.13,0,0,1,.26,1.8,3.46,3.46,0,0,1-.78,2.56,2.83,2.83,0,0,1-2.06.76h-10v4.4h10.65a5.75,5.75,0,0,1,.59,1.35,5.89,5.89,0,0,1,.26,1.77,3.54,3.54,0,0,1-.76,2.56,2.75,2.75,0,0,1-2,.76h-8.71v5H156a5.73,5.73,0,0,1,.59,1.37,6.15,6.15,0,0,1,.26,1.8,3.55,3.55,0,0,1-.78,2.58,2.78,2.78,0,0,1-2.06.78H140.15a4.09,4.09,0,0,1-4.4-4.4Z"/><path class="cls-2" d="M184.64,23.81a2.62,2.62,0,0,1,.12.66q0,.38,0,.71a6.65,6.65,0,0,1-.19,1.61,3.66,3.66,0,0,1-.62,1.33,3.21,3.21,0,0,1-1.11.92,3.74,3.74,0,0,1-1.73.35,4.84,4.84,0,0,1-2-.43q-1-.43-2.39-1.23L166.6,21.87a6.83,6.83,0,0,1-1.23-4.26,6.78,6.78,0,0,1,.57-3.08,4.11,4.11,0,0,1,1.66-1.7l13-7.57a5.8,5.8,0,0,1,3.15,1.68,3.67,3.67,0,0,1,.83,2.3,3.73,3.73,0,0,1-.83,2.58,8.16,8.16,0,0,1-2.44,1.73L173,17.75Z"/><path class="cls-2" d="M209.49.9a5.67,5.67,0,0,1,.59,1.4,6.39,6.39,0,0,1,.26,1.82,3.63,3.63,0,0,1-.78,2.63,2.85,2.85,0,0,1-2.11.78h-9.94v5.35h10.37a4.63,4.63,0,0,1,.64,1.37,6.15,6.15,0,0,1,.26,1.8,3.55,3.55,0,0,1-.78,2.58,2.85,2.85,0,0,1-2.11.78h-8.28v10a13,13,0,0,1-1.63.28,17.26,17.26,0,0,1-2.2.14,9.85,9.85,0,0,1-1.92-.17,3.4,3.4,0,0,1-1.4-.59,2.56,2.56,0,0,1-.85-1.18,5.79,5.79,0,0,1-.28-2V5.3a4.35,4.35,0,0,1,1.18-3.22A4.35,4.35,0,0,1,193.73.9Z"/><path class="cls-2" d="M212.8,15.2A17.16,17.16,0,0,1,214,8.66,13.17,13.17,0,0,1,221.87,1a18,18,0,0,1,11.79,0,13.71,13.71,0,0,1,4.76,2.91,13.38,13.38,0,0,1,3.2,4.76,17.16,17.16,0,0,1,1.16,6.53,17.68,17.68,0,0,1-1.14,6.56,13.23,13.23,0,0,1-3.15,4.78,13.45,13.45,0,0,1-4.76,2.91,17.38,17.38,0,0,1-6,1,17,17,0,0,1-6-1,13.29,13.29,0,0,1-4.73-3,13.67,13.67,0,0,1-3.12-4.78A17.37,17.37,0,0,1,212.8,15.2Zm8.52,0q0,4.31,1.75,6.44a6.27,6.27,0,0,0,9.42,0q1.75-2.13,1.75-6.44t-1.73-6.39a5.74,5.74,0,0,0-4.71-2.13,5.85,5.85,0,0,0-4.71,2.11Q221.32,10.89,221.32,15.2Z"/><path class="cls-2" d="M255.74,20.31V29.4a13,13,0,0,1-1.63.28,17.26,17.26,0,0,1-2.2.14,9.85,9.85,0,0,1-1.92-.17,3.21,3.21,0,0,1-1.37-.59,2.63,2.63,0,0,1-.83-1.18,5.79,5.79,0,0,1-.28-2V3.6A2.08,2.08,0,0,1,248,2.06a3.89,3.89,0,0,1,1.49-.88,17.84,17.84,0,0,1,3.74-.83,37.7,37.7,0,0,1,4.54-.26q6.53,0,9.85,2.75A9.15,9.15,0,0,1,271,10.27a8.3,8.3,0,0,1-1.52,5,10.89,10.89,0,0,1-3.6,3.22q1.7,2.32,3.36,4.36a28.16,28.16,0,0,1,2.6,3.69,4.46,4.46,0,0,1-1.73,2.53,4.8,4.8,0,0,1-2.82.88,6.07,6.07,0,0,1-1.8-.24,4.36,4.36,0,0,1-1.33-.66,5.41,5.41,0,0,1-1-1,13.68,13.68,0,0,1-.9-1.33l-4-6.39Zm3-6.3a4.13,4.13,0,0,0,2.84-.92,3.45,3.45,0,0,0,1-2.72,3.27,3.27,0,0,0-1.16-2.72,5.89,5.89,0,0,0-3.67-.92,10.91,10.91,0,0,0-1.14,0q-.43,0-.95.14V14Z"/><path class="cls-2" d="M274.86,10.84a2.58,2.58,0,0,1-.12-.66c0-.25,0-.49,0-.71a6.61,6.61,0,0,1,.19-1.61,3.66,3.66,0,0,1,.62-1.33,3.21,3.21,0,0,1,1.11-.92,3.74,3.74,0,0,1,1.73-.35,4.85,4.85,0,0,1,2,.43q1,.43,2.39,1.23l10.18,5.87A6.83,6.83,0,0,1,294.13,17a6.78,6.78,0,0,1-.57,3.08,4.1,4.1,0,0,1-1.66,1.7l-13,7.57a5.79,5.79,0,0,1-3.15-1.68,3.67,3.67,0,0,1-.83-2.3,3.73,3.73,0,0,1,.83-2.58,8.17,8.17,0,0,1,2.44-1.73l8.33-4.21Z"/><path class="cls-1" d="M309.63,29.73a4.09,4.09,0,0,1-4.4-4.4V.85l1.66-.26a15.1,15.1,0,0,1,2.18-.17A9.87,9.87,0,0,1,311,.59a3.42,3.42,0,0,1,1.4.59,2.56,2.56,0,0,1,.85,1.18,5.77,5.77,0,0,1,.28,2v18.7h10.84a6.26,6.26,0,0,1,.62,1.4,5.86,5.86,0,0,1,.28,1.82,3.64,3.64,0,0,1-.8,2.67,2.93,2.93,0,0,1-2.13.78Z"/><path class="cls-1" d="M337.79,29.4a13,13,0,0,1-1.63.28,17.26,17.26,0,0,1-2.2.14,9.85,9.85,0,0,1-1.92-.17,3.4,3.4,0,0,1-1.4-.59,2.56,2.56,0,0,1-.85-1.18,5.79,5.79,0,0,1-.28-2V.9l1.66-.26a15.23,15.23,0,0,1,2.18-.17,10,10,0,0,1,1.92.17,3.42,3.42,0,0,1,1.4.59,2.56,2.56,0,0,1,.85,1.18,5.77,5.77,0,0,1,.28,2Z"/><path class="cls-1" d="M364.11.9a5.67,5.67,0,0,1,.59,1.4A6.39,6.39,0,0,1,365,4.12a3.63,3.63,0,0,1-.78,2.63,2.85,2.85,0,0,1-2.11.78h-9.94v5.35H362.5a4.63,4.63,0,0,1,.64,1.37,6.15,6.15,0,0,1,.26,1.8,3.55,3.55,0,0,1-.78,2.58,2.85,2.85,0,0,1-2.11.78h-8.28v10a13,13,0,0,1-1.63.28,17.26,17.26,0,0,1-2.2.14,9.85,9.85,0,0,1-1.92-.17,3.4,3.4,0,0,1-1.4-.59,2.56,2.56,0,0,1-.85-1.18,5.79,5.79,0,0,1-.28-2V5.3a4.35,4.35,0,0,1,1.18-3.22A4.35,4.35,0,0,1,348.35.9Z"/><path class="cls-1" d="M369.08,5.3a4.35,4.35,0,0,1,1.18-3.22A4.35,4.35,0,0,1,373.49.9h15.62a5.69,5.69,0,0,1,.59,1.37,6.13,6.13,0,0,1,.26,1.8,3.46,3.46,0,0,1-.78,2.56,2.83,2.83,0,0,1-2.06.76h-10v4.4h10.65a5.75,5.75,0,0,1,.59,1.35,5.89,5.89,0,0,1,.26,1.77,3.54,3.54,0,0,1-.76,2.56,2.75,2.75,0,0,1-2,.76h-8.71v5H389.3a5.73,5.73,0,0,1,.59,1.37,6.15,6.15,0,0,1,.26,1.8,3.55,3.55,0,0,1-.78,2.58,2.78,2.78,0,0,1-2.06.78H373.49a4.09,4.09,0,0,1-4.4-4.4Z"/></g></g></svg>