<svg id="Layer_1" data-name="Layer 1" xmlns="http://www.w3.org/2000/svg" xmlns:xlink="http://www.w3.org/1999/xlink" viewBox="0 0 781.61 255.82"><defs><style>.cls-1{fill:url(#linear-gradient);}.cls-2{fill:#fff;}.cls-3{fill:#3c3c3c;}</style><linearGradient id="linear-gradient" x1="390.81" x2="390.81" y2="255.82" gradientUnits="userSpaceOnUse"><stop offset="0" stop-color="#00cea7"/><stop offset="0.2" stop-color="#00c3ac"/><stop offset="0.68" stop-color="#00afb5"/><stop offset="1" stop-color="#00a8b8"/></linearGradient></defs><title>K_logo_full_colour</title><path class="cls-1" d="M697.33.34A84.18,84.18,0,0,0,630.4,33.48,71.21,71.21,0,0,0,621,21.9C607,8,588,.41,567.25.41S527.48,8,513.54,21.9a72,72,0,0,0-9.45,11.59,84.09,84.09,0,0,0-115.1-18A35.89,35.89,0,0,0,359.73.41c-21.56,0-41.4,8-55.87,22.43-.52.53-1,1.07-1.52,1.61a37.13,37.13,0,0,0-65.33-8,9.77,9.77,0,0,1-16.12-.1A37.16,37.16,0,0,0,188.05.48a36.22,36.22,0,0,0-20.39,7.87A37.45,37.45,0,0,0,144.19,0a37,37,0,0,0-22.25,7.39L74.47,42.77V37.24A37.24,37.24,0,1,0,0,37.24V131.3A37.18,37.18,0,0,0,13.53,160a37,37,0,0,0-8.08,47.6,99.5,99.5,0,0,0,170.54,0A37,37,0,0,0,167.9,160a36.51,36.51,0,0,0,6-6.27A38.17,38.17,0,0,0,177,149c13.77,12.81,32.12,19.86,52,19.86,20.69,0,39.77-7.63,53.71-21.49.37-.37.73-.76,1.09-1.14a37.16,37.16,0,0,0,71.36-14.53V103.94a84.2,84.2,0,0,0,139.53,42.21,36.93,36.93,0,0,0,64.5,6.69,9.78,9.78,0,0,1,16.17,0,36.92,36.92,0,0,0,64.49-6.69A84.25,84.25,0,1,0,697.33.34Z"/><path class="cls-2" d="M284.47,37.56V91.85c0,34-24.37,56.71-55.49,56.71s-55.5-22.69-55.5-56.71V37.56a16.89,16.89,0,0,1,33.78,0V93.05c0,15.69,9.66,24.14,21.72,24.14s21.71-8.45,21.71-24.14V37.56a16.89,16.89,0,0,1,33.78,0Z"/><path class="cls-2" d="M375.42,36.36a15.66,15.66,0,0,1-15.69,15.69c-13.75,0-24.85,9.65-24.85,29.67v49.95a16.9,16.9,0,0,1-33.79,0V81.72c0-37.39,26.07-61,58.64-61A15.66,15.66,0,0,1,375.42,36.36Z"/><path class="cls-2" d="M622.74,77.39v54.29a16.89,16.89,0,0,1-33.77,0V76.19c0-15.69-9.65-24.14-21.72-24.14s-21.71,8.45-21.71,24.14v55.49a16.9,16.9,0,0,1-33.79,0V77.39c0-34,24.37-56.71,55.5-56.71S622.74,43.37,622.74,77.39Z"/><path class="cls-2" d="M761.28,84.62a64,64,0,1,1-63.95-63.95A63.95,63.95,0,0,1,761.28,84.62ZM697.33,52a32.58,32.58,0,1,0,32.58,32.58A32.58,32.58,0,0,0,697.33,52Z"/><path class="cls-2" d="M501.11,84.62a64,64,0,1,1-63.95-63.95A63.95,63.95,0,0,1,501.11,84.62ZM437.16,52a32.58,32.58,0,1,0,32.58,32.58A32.58,32.58,0,0,0,437.16,52Z"/><path class="cls-2" d="M37.24,148.21A16.91,16.91,0,0,1,20.33,131.3V37.24a16.91,16.91,0,1,1,33.81,0V131.3A16.91,16.91,0,0,1,37.24,148.21Z"/><path class="cls-2" d="M144.19,148.21A16.8,16.8,0,0,1,134,144.8L71.27,97.5a16.9,16.9,0,0,1,.08-27l62.74-46.77a16.91,16.91,0,1,1,20.22,27.1l-44.69,33.3,44.76,33.72a16.91,16.91,0,0,1-10.19,30.4Z"/><path class="cls-2" d="M90.72,235.49a78.54,78.54,0,0,1-67.85-38.37A16.76,16.76,0,0,1,51.6,179.85a45.65,45.65,0,0,0,78.24,0,16.76,16.76,0,1,1,28.72,17.27A78.52,78.52,0,0,1,90.72,235.49Z"/><path class="cls-3" d="M223.69,214.55h-12.5l-3.29,9.54h-4.8L215,190.91h4.89l11.94,33.18H227Zm-6.25-19.09s-.75,3-1.32,4.7l-3.71,10.53h10.06l-3.67-10.53c-.56-1.69-1.27-4.7-1.27-4.7Z"/><path class="cls-3" d="M258.42,230c4.14,0,7.52-1.84,7.52-6.68v-1.74c0-.75.05-1.5.05-1.5h-.1c-1.41,2.35-3.62,3.71-7.05,3.71-6.62,0-10.62-5.31-10.62-12.17s3.81-11.89,10.39-11.89c5.73,0,7.47,3.53,7.47,3.53h.09a7,7,0,0,1,0-.76v-2.2h4.37V223.1c0,7.85-6,10.85-12,10.85a18.51,18.51,0,0,1-8.13-2l1.51-3.57A15.3,15.3,0,0,0,258.42,230ZM266,211.68c0-6.2-3-8-6.72-8-4.13,0-6.48,3-6.48,7.85s2.63,8.32,6.91,8.32C263,219.86,266,217.88,266,211.68Z"/><path class="cls-3" d="M291,209.23h1v-.42c0-3.9-2.2-5.22-5.21-5.22a12,12,0,0,0-6.63,2.31l-1.88-3.34a14.91,14.91,0,0,1,8.88-2.82c6,0,9.4,3.29,9.4,9.31v15h-4.23v-2.26a16.81,16.81,0,0,1,.1-1.88h-.1a8.21,8.21,0,0,1-7.61,4.7c-4.09,0-8.08-2.49-8.08-7.24C276.66,209.56,287,209.23,291,209.23ZM285.73,221c3.85,0,6.34-4,6.34-7.56v-.75H290.9c-3.43,0-9.64.23-9.64,4.51C281.26,219.1,282.77,221,285.73,221Z"/><path class="cls-3" d="M302.46,200.31h4.42v3.14a15.73,15.73,0,0,1-.1,1.74h.1a9.28,9.28,0,0,1,8.17-5.45c4,0,6.35,1.83,7.15,5.41h.09a9.58,9.58,0,0,1,8.46-5.41c5.36,0,7.85,3.06,7.85,9.12v15.23H334V209.85c0-3.34-.66-6-4.23-6-3.34,0-5.83,2.82-6.67,6.06a13.94,13.94,0,0,0-.33,3.29v10.86h-4.56V209.85c0-3.11-.47-6-4.14-6-3.47,0-5.92,2.86-6.81,6.25a13.4,13.4,0,0,0-.28,3.1v10.86h-4.56Z"/><path class="cls-3" d="M354.72,199.74c6.72,0,10.29,5,10.29,11.14,0,.61-.14,2-.14,2H347.53a7.78,7.78,0,0,0,8.18,7.85,11.34,11.34,0,0,0,7.05-2.77l1.88,3.34a14.18,14.18,0,0,1-9.21,3.38c-7.48,0-12.6-5.41-12.6-12.46C342.83,204.63,348,199.74,354.72,199.74Zm5.64,9.68c-.14-4.09-2.68-6.06-5.73-6.06a6.82,6.82,0,0,0-7,6.06Z"/><path class="cls-3" d="M384.52,190.91h4.56v10.85a18.92,18.92,0,0,1-.1,2h.1a8.39,8.39,0,0,1,7.61-4c6.39,0,10.44,5.08,10.44,12.45,0,7.57-4.56,12.46-10.81,12.46a8.57,8.57,0,0,1-7.48-4.09h-.09a16.64,16.64,0,0,1,.09,1.79v1.74h-4.32Zm11.14,29.84c3.76,0,6.86-3.1,6.86-8.51,0-5.17-2.77-8.5-6.72-8.5-3.57,0-6.86,2.49-6.86,8.55C388.94,216.52,391.15,220.75,395.66,220.75Z"/><path class="cls-3" d="M410.79,229a5.32,5.32,0,0,0,2.78,1c1.83,0,3.38-1.32,4.27-3.48L419,223.8l-10-23.49h5.13l6,15.55c.47,1.22.89,2.87.89,2.87h.09s.38-1.6.8-2.82l5.78-15.6h4.94l-11.14,28.05c-1.46,3.67-4.37,5.59-7.71,5.59a8.31,8.31,0,0,1-4.6-1.45Z"/><path class="cls-3" d="M466,190.34c8,0,12.07,4.37,12.07,4.37l-2.3,3.48a15.13,15.13,0,0,0-9.59-3.62c-7.42,0-12.26,5.64-12.26,12.69s4.93,13.11,12.31,13.11a15,15,0,0,0,10.25-4.32l2.49,3.34a17.8,17.8,0,0,1-12.88,5.26c-10,0-17-7.61-17-17.34A16.56,16.56,0,0,1,466,190.34Z"/><path class="cls-3" d="M494.54,199.74c7.1,0,12.83,5.22,12.83,12.41s-5.73,12.5-12.83,12.5-12.83-5.26-12.83-12.5S487.45,199.74,494.54,199.74Zm0,21a8.51,8.51,0,1,0-8.17-8.55A8.21,8.21,0,0,0,494.54,220.7Z"/><path class="cls-3" d="M521.05,199.74c5.5,0,7.33,3.76,7.33,3.76h.1a12.58,12.58,0,0,1-.1-1.6v-11h4.56v33.18h-4.32v-2.26c0-.94,0-1.6,0-1.6h-.1a8.32,8.32,0,0,1-7.8,4.42c-6.44,0-10.48-5.08-10.48-12.46C510.29,204.63,514.75,199.74,521.05,199.74Zm.61,21c3.53,0,6.87-2.49,6.87-8.55,0-4.23-2.21-8.46-6.73-8.46-3.76,0-6.86,3.1-6.86,8.5C514.94,217.36,517.72,220.7,521.66,220.7Z"/><path class="cls-3" d="M548.45,199.74c6.72,0,10.29,5,10.29,11.14,0,.61-.14,2-.14,2H541.26a7.78,7.78,0,0,0,8.18,7.85,11.34,11.34,0,0,0,7-2.77l1.88,3.34a14.18,14.18,0,0,1-9.21,3.38c-7.47,0-12.6-5.41-12.6-12.46C536.56,204.63,541.69,199.74,548.45,199.74Zm5.64,9.68c-.14-4.09-2.68-6.06-5.73-6.06a6.82,6.82,0,0,0-7,6.06Z"/><path class="cls-3" d="M579.19,190.91h18.28v4H583.84v10.9h11.61v4H583.84v14.2h-4.65Z"/><path class="cls-3" d="M612.23,199.74c7.1,0,12.83,5.22,12.83,12.41s-5.73,12.5-12.83,12.5-12.83-5.26-12.83-12.5S605.13,199.74,612.23,199.74Zm0,21a8.51,8.51,0,1,0-8.18-8.55A8.22,8.22,0,0,0,612.23,220.7Z"/><path class="cls-3" d="M629.53,200.31H634v4.13a16.1,16.1,0,0,1-.1,1.79h.1c1.08-3.48,3.85-6.21,7.51-6.21a7.58,7.58,0,0,1,1.18.1v4.51a6.61,6.61,0,0,0-1.32-.14c-2.91,0-5.59,2.07-6.67,5.59a14.54,14.54,0,0,0-.56,4.28v9.73h-4.56Z"/><path class="cls-3" d="M662.05,190.91h4.65V220h14.85v4.05h-19.5Z"/><path class="cls-3" d="M685.93,190.91h4.6v4.65h-4.6Zm0,9.4h4.56v23.78H686Z"/><path class="cls-3" d="M698,204.3h-3v-3.67h3v-1.12c0-7.85,5.93-8.84,8.93-8.84a9.79,9.79,0,0,1,1.74.14v3.9a6.86,6.86,0,0,0-1.17-.09c-1.74,0-5,.56-5,5v1h5.64v3.67h-5.64v19.79H698Z"/><path class="cls-3" d="M721.36,199.74c6.72,0,10.3,5,10.3,11.14,0,.61-.15,2-.15,2H714.17a7.78,7.78,0,0,0,8.18,7.85,11.34,11.34,0,0,0,7-2.77l1.88,3.34a14.18,14.18,0,0,1-9.21,3.38c-7.47,0-12.6-5.41-12.6-12.46C709.47,204.63,714.6,199.74,721.36,199.74Zm5.64,9.68c-.14-4.09-2.68-6.06-5.73-6.06a6.82,6.82,0,0,0-7,6.06Z"/></svg>