<svg id="Layer_1" data-name="Layer 1" xmlns="http://www.w3.org/2000/svg" xmlns:xlink="http://www.w3.org/1999/xlink" viewBox="0 0 504 146"><defs><style>.cls-1{fill:none;}.cls-2{isolation:isolate;}.cls-3{clip-path:url(#clip-path);}.cls-4{fill:#df5ee8;}.cls-5{clip-path:url(#clip-path-2);}.cls-6{fill:#3b55fc;}.cls-7{clip-path:url(#clip-path-3);}.cls-8{fill:#fcc3dd;}.cls-9{fill:#2e2452;}</style><clipPath id="clip-path"><polygon class="cls-1" points="3.77 108.5 3.97 38.18 65.16 73.51 64.96 143.82 3.77 108.5"/></clipPath><clipPath id="clip-path-2"><polygon class="cls-1" points="64.51 143.77 64.31 73.41 125.55 38.05 125.75 108.41 64.51 143.77"/></clipPath><clipPath id="clip-path-3"><polygon class="cls-1" points="3.27 38.3 64.12 2.94 125.36 38.3 64.51 73.66 3.27 38.3"/></clipPath></defs><title>AIMMO-Logo-Horizontal-RGB</title><g class="cls-2"><g class="cls-3"><polyline class="cls-4" points="64.35 73.97 4.77 39.57 4.57 108.04 64.16 142.44 64.35 73.97"/><path class="cls-4" d="M4.57,108l.2-68.47L64.35,74l-.19,68.47L4.57,108M65.16,73.51,4,38.18l-.2,70.32L65,143.82l.2-70.31"/></g></g><g class="cls-2"><g class="cls-5"><polyline class="cls-6" points="124.7 39.52 65.17 73.89 65.36 142.3 124.89 107.93 124.7 39.52"/><path class="cls-6" d="M65.36,142.3l-.19-68.41L124.7,39.52l.19,68.41L65.36,142.3M125.55,38.05,64.31,73.41l.2,70.36,61.24-35.36-.2-70.36"/></g></g><g class="cls-2"><g class="cls-7"><polyline class="cls-8" points="123.65 38.3 64.11 3.93 4.97 38.3 64.51 72.67 123.65 38.3"/><path class="cls-8" d="M5,38.3,64.12,3.93,123.65,38.3,64.51,72.67,5,38.3m120.39,0L64.12,2.94,3.27,38.3,64.51,73.66,125.36,38.3"/></g></g><path class="cls-9" d="M192.24,94.09H170.76l-4.15,14.45H149.27l23.41-68.88h17.73l23.41,68.88H196.48ZM181.45,55.36s-1.54,7.51-2.79,11.85L174.71,80.6h13.58l-3.85-13.39c-1.26-4.34-2.8-11.85-2.8-11.85Z"/><path class="cls-9" d="M221.52,39.66h16.86v68.88H221.52Z"/><path class="cls-9" d="M253,58.92h15.8v15.8H253Zm0,33.82h15.8v15.8H253Z"/><path class="cls-9" d="M286.37,40.6h6.93L311,80.38c1.54,3.47,3.28,8.29,3.28,8.29h.19s1.83-4.82,3.37-8.29L335.6,40.6h6.84l5.39,67.72h-6.65l-3.75-47.4c-.29-3.66-.2-9.44-.2-9.44H337s-2,6-3.56,9.44L317.58,95.7h-6.26l-15.9-34.78c-1.54-3.37-3.66-9.63-3.66-9.63h-.19s.1,6-.19,9.63l-3.76,47.4H281Z"/><path class="cls-9" d="M360.6,40.6h6.94l17.72,39.78c1.55,3.47,3.28,8.29,3.28,8.29h.19s1.83-4.82,3.37-8.29L409.83,40.6h6.84l5.39,67.72h-6.64l-3.76-47.4c-.29-3.66-.19-9.44-.19-9.44h-.2s-2,6-3.56,9.44L391.82,95.7h-6.27L369.66,60.92c-1.54-3.37-3.66-9.63-3.66-9.63h-.19s.09,6-.2,9.63l-3.76,47.4h-6.64Z"/><path class="cls-9" d="M462.76,39.44A34.22,34.22,0,0,1,497.25,74c0,19.85-15.31,35.46-34.49,35.46S428.28,93.87,428.28,74A34.22,34.22,0,0,1,462.76,39.44Zm0,63.87c15.23,0,27.56-12.72,27.56-29.29,0-16.18-12.33-28.41-27.56-28.41S435.21,57.84,435.21,74C435.21,90.59,447.45,103.31,462.76,103.31Z"/></svg>