<?xml version="1.0" encoding="UTF-8"?>
<svg width="101px" height="70px" viewBox="0 0 101 70" version="1.1" xmlns="http://www.w3.org/2000/svg" xmlns:xlink="http://www.w3.org/1999/xlink">
    <!-- Generator: Sketch 55.1 (78136) - https://sketchapp.com -->
    <title>compass2</title>
    <desc>Created with Sketch.</desc>
    <g id="Page-1" stroke="none" stroke-width="1" fill="none" fill-rule="evenodd">
        <g id="compass2" transform="translate(-1.000000, 0.000000)" fill-rule="nonzero">
            <path d="M101.08,29.03 L101.08,31.67 L100.56,34.93 C98.62,41.67 94.3,46.59 88.69,50.52 C83.398431,54.1247461 77.5111282,56.7653994 71.3,58.32 C61.9275229,60.8207016 52.1722751,61.5598896 42.53,60.5 C33.8741022,59.7370093 25.4552473,57.2660737 17.76,53.23 C10.12,49.08 3.92,43.6 1.45,34.87 C1.40511364,34.1157795 1.25360844,33.3717206 1,32.66 L1,28.55 C1.26,27.43 1.44,26.29 1.78,25.2 C3.47256481,19.9962424 6.74847523,15.4512226 11.15,12.2 C19.96,5.24 30.27,2.1 41.2,0.72 C49.6638528,-0.361936322 58.2478836,-0.0477628212 66.61,1.65 C74.3712227,3.05761945 81.7708008,6.00928942 88.37,10.33 C93.28,13.67 97.29,17.81 99.61,23.4 C100.213402,25.2452127 100.704304,27.125333 101.08,29.03 Z M24.17,47.41 L11.54,43.1 L9.19,44.29 L25.76,49.56 L28.34,48.26 L22.34,41.59 L22.49,41.36 L34.66,45.14 L37.2,43.8 L28.76,34.55 L26.45,35.7 L33.45,43.14 L19.95,38.94 L18.03,39.94 C18.1508875,40.1576481 18.2844507,40.3680102 18.43,40.57 C20.28,42.57 22.12,44.64 23.98,46.67 C24.2,46.91 24.51,47.07 24.2,47.44 L24.17,47.41 Z M68.76,18.79 C67.14,18.79 65.97,20.09 64.57,20.32 C56.7376495,16.8379446 47.8395522,16.6255709 39.85,19.73 L32.76,18.29 L32.66,18.53 L35.66,22.04 C35.31,22.37 34.94,22.68 34.6,23.04 C31.26,26.36 31.34,30.09 34.83,33.22 C35.5,33.82 36.26,34.33 37.01,34.91 L34.51,36.54 L34.59,36.68 L37.76,35.28 C45.9175837,38.7605836 55.1424163,38.7605836 63.3,35.28 L66.15,36.49 L66.25,36.3 L64.11,34.87 L65.95,33.63 C71.15,30.02 71.19,24.99 66.05,21.36 C65.84,21.21 65.51,21.15 65.55,20.72 L68.81,18.79 L68.75,18.79 L68.76,18.79 Z M37.23,13.64 L25.46,6.87 C24.7407634,7.13613657 24.066338,7.51044267 23.46,7.98 L32.31,13.08 C32.170655,13.1248564 32.0261537,13.1517403 31.88,13.16 C26.88,12.76 21.94,12.38 16.98,11.91 C15.8429516,11.8680156 14.7320534,12.2573657 13.87,13 L25.76,19.87 C26.4577568,19.5607925 27.1076771,19.1533295 27.69,18.66 L18.86,13.56 C23.44,13.91 27.76,14.26 32.07,14.56 C33.81,14.67 35.64,15.24 37.23,13.64 Z M77.17,50.1 C80.4237634,50.0159612 83.5701217,48.9182318 86.17,46.96 C88,45.48 87.77,43.71 85.71,42.6 C85.1087256,42.2837687 84.4545869,42.0804095 83.78,42 C81.18,41.66 78.78,42.41 76.26,43 C74.7609672,43.5470042 73.1515699,43.7220133 71.57,43.51 C70.33,43.22 70.05,42.33 70.8,41.36 C71.3258972,40.7598441 72.0025492,40.3110443 72.76,40.06 C74.057858,39.5980986 75.3974658,39.2631967 76.76,39.06 C76.722948,38.5369488 76.5197325,38.0394212 76.18,37.64 C73.363625,37.7192217 70.6526608,38.7283614 68.47,40.51 C66.47,42.36 66.89,44.2 69.47,45.11 C71.78,45.93 74.04,45.3 76.3,44.83 C78.0531714,44.3063988 79.8507173,43.9448812 81.67,43.75 C82.8725071,43.5301708 84.0481042,44.2493089 84.4,45.42 C82.61,47.84 79.77,48.09 76.96,48.48 L77.17,50.1 Z M78.17,16.6 C76.8304061,15.9051309 75.5376518,15.1234655 74.3,14.26 L79.87,11.65 C79.4106807,11.2703592 78.885203,10.9788038 78.32,10.79 L72.58,13.41 L68.76,11.19 L75.76,7.87 L74.16,6.99 L64.76,11.34 L71.1,15 L77.35,18.57 L87.08,14.09 C86.6338786,13.6784709 86.0954462,13.3801039 85.51,13.22 L78.17,16.6 Z" id="Shape" fill="#E77202"></path>
            <path d="M1.45,34.87 C3.92,43.6 10.12,49.08 17.76,53.23 C25.4583043,57.2673369 33.880681,59.7383086 42.54,60.5 C52.1822751,61.5598896 61.9375229,60.8207016 71.31,58.32 C77.5211282,56.7653994 83.408431,54.1247461 88.7,50.52 C94.31,46.59 98.63,41.67 100.57,34.93 L101.09,37.19 L101.09,40.07 C100.76,41.5 100.54,42.96 100.09,44.34 C98.21,50.07 94.4,54.34 89.63,57.85 C81.51,63.85 72.2,66.74 62.36,68.17 C52.6030172,69.6087018 42.6620747,69.1913858 33.06,66.94 C26.0542129,65.4320861 19.3992438,62.6051666 13.45,58.61 C8.5,55.19 4.45,50.97 2.24,45.24 C1.68,43.79 1.51,42.24 1.02,40.79 L1.02,36.71 L1.45,34.87 Z" id="Path" fill="#2655A3"></path>
            <path d="M1,40.79 C1.49,42.25 1.66,43.79 2.22,45.24 C4.45,50.97 8.48,55.24 13.43,58.61 C19.3792438,62.6051666 26.0342129,65.4320861 33.04,66.94 C42.6420747,69.1913858 52.5830172,69.6087018 62.34,68.17 C72.18,66.74 81.49,63.87 89.61,57.87 C94.38,54.38 98.19,50.09 100.07,44.36 C100.53,42.98 100.75,41.52 101.07,40.09 L101.07,69.09 L1,69.09 L1,40.79 Z" id="Path" fill="#FEFDFC"></path>
            <path d="M101.08,29.03 C100.704304,27.125333 100.213402,25.2452127 99.61,23.4 C97.29,17.81 93.28,13.67 88.37,10.33 C81.7708008,6.00928942 74.3712227,3.05761945 66.61,1.65 C58.2478836,-0.0477628212 49.6638528,-0.361936322 41.2,0.72 C30.27,2.1 19.96,5.24 11.2,12.19 C6.77080128,15.4333312 3.46942624,19.9832136 1.76,25.2 C1.44,26.29 1.26,27.43 1,28.55 L1,0 L101.08,0 L101.08,29.03 Z" id="Path" fill="#FEFDFC"></path>
            <path d="M101.08,37.19 L100.56,34.93 C100.73,33.84 100.91,32.76 101.08,31.67 L101.08,37.19 Z" id="Path" fill="#FEFDFC"></path>
            <path d="M1.45,34.87 L1,36.71 L1,32.63 C1.25639843,33.3512911 1.40794355,34.1056491 1.45,34.87 L1.45,34.87 Z" id="Path" fill="#FEFDFC"></path>
            <path d="M39.88,19.73 C47.8695522,16.6255709 56.7676495,16.8379446 64.6,20.32 C66,20.09 67.17,18.81 68.79,18.79 L68.79,18.79 L65.53,20.72 C65.53,21.15 65.82,21.21 66.03,21.36 C71.17,24.99 71.13,30.02 65.93,33.63 L64.11,34.87 L66.25,36.3 L66.15,36.49 L63.3,35.28 C55.1424163,38.7605836 45.9175837,38.7605836 37.76,35.28 L34.56,36.65 L34.48,36.51 L36.98,34.87 C36.23,34.29 35.47,33.78 34.8,33.18 C31.31,30.05 31.23,26.32 34.57,23 C34.91,22.67 35.28,22.36 35.63,22 C35.94,22.1 36.07,22.38 36.25,22.61 C35.7469921,23.002955 35.2662485,23.4236057 34.81,23.87 C32.33,26.49 32.28,29.35 34.67,31.94 C35.464825,32.7823883 36.3899747,33.4914445 37.41,34.04 C37.74,34.23 38.06,34.4 38.3,33.91 C36.8701631,33.1063215 35.6769006,31.9406489 34.84,30.53 C33.51,28.13 34.16,25.68 36.75,23.2 C37.0122298,23.3151872 37.2124823,23.5372855 37.3,23.81 C33.61,27.05 34.44,31.18 39.3,33.46 L43.58,30.73 C45.48,29.91 47.08,28.58 48.91,27.59 L52.91,29.1 L52.91,29.04 L52.91,29.04 C52.4,28.04 51.29,27.65 50.75,26.68 L57.28,23.61 L61.72,21.61 C59.3488749,20.4912575 56.7938841,19.8135411 54.18,19.61 C50.7983424,19.2207448 47.3728824,19.5200899 44.11,20.49 L42.17,20.12 C48.93,18.12 55.61,17.96 62.17,20.91 C62.6482939,21.1729979 63.2491224,21.0038757 63.52,20.53 C56.4545289,17.6403391 48.580467,17.4129294 41.36,19.89 C40.83,19.94 40.31,20.03 39.88,19.73 Z M62.88,22.34 L53.51,28.06 L61.87,33.4 C64.18,31.92 66.53,30.51 66.55,27.4 C66.54,24.95 64.76,23.58 62.85,22.34 L62.88,22.34 Z M50.68,29.5 L40.48,34.06 C45.91,36.61 55.73,36.52 60.48,33.92 L50.68,29.5 Z M62.68,33.86 C63.91,34.5 67.39,31.93 68.47,29.7 C69.97,26.6 68.26,23.04 64.47,21.38 C64.1717737,21.4516499 63.930567,21.6702434 63.83,21.96 C65.83,23.53 67.66,25.28 67.27,28.17 C66.88,31.06 64.76,32.38 62.69,33.87 L62.68,33.86 Z M61.89,34.67 C54.5878593,37.5240168 46.4845124,37.5561022 39.16,34.76 C46.4416503,37.7994782 54.6426367,37.7670205 61.9,34.67 L61.89,34.67 Z" id="Shape" fill="#FEFDFC"></path>
            <path d="M57.23,23.68 L50.7,26.75 C51.24,27.75 52.35,28.15 52.86,29.11 L52.86,29.11 L48.86,27.6 C47.03,28.6 45.43,29.92 43.53,30.74 L37.3,23.87 C37.2124823,23.5972855 37.0122298,23.3751872 36.75,23.26 L36.25,22.68 C36.07,22.45 35.94,22.17 35.63,22.07 L32.63,18.56 L32.73,18.32 L39.87,19.76 C40.3,20.06 40.87,19.97 41.3,20.07 L42.11,20.3 L44.05,20.67 C45.59,21.03 47.13,21.38 48.67,21.75 C51.52,22.41 54.42,22.87 57.23,23.68 Z" id="Path" fill="#2655A3"></path>
            <path d="M24.16,47.4 C24.47,47.03 24.16,46.87 23.94,46.63 C22.08,44.63 20.24,42.57 18.39,40.53 C18.2444507,40.3280102 18.1108875,40.1176481 17.99,39.9 L19.91,38.9 L33.41,43.1 L26.41,35.66 L28.76,34.55 L37.21,43.8 L34.66,45.14 L22.45,41.36 L22.3,41.59 L28.3,48.26 L25.76,49.56 L9.19,44.29 L11.54,43.1 L24.17,47.41 L24.41,47.35 L24.16,47.4 Z" id="Path" fill="#FEFDFC"></path>
            <path d="M37.23,13.64 C35.64,15.24 33.81,14.64 32.06,14.55 C27.75,14.23 23.43,13.88 18.85,13.55 L27.68,18.65 C27.1013808,19.1460478 26.4548461,19.5568668 25.76,19.87 L13.85,12.97 C14.7105613,12.2237554 15.8216203,11.8307764 16.96,11.87 C21.96,12.34 26.89,12.72 31.86,13.12 C32.0061537,13.1117403 32.150655,13.0848564 32.29,13.04 L23.44,7.94 C24.055041,7.48274614 24.7362004,7.121934 25.46,6.87 L37.23,13.64 Z" id="Path" fill="#FEFDFC"></path>
            <path d="M77.17,50.1 L76.95,48.44 C79.76,48.05 82.6,47.8 84.39,45.38 C84.0381042,44.2093089 82.8625071,43.4901708 81.66,43.71 C79.8407173,43.9048812 78.0431714,44.2663988 76.29,44.79 C74.03,45.26 71.77,45.89 69.46,45.07 C66.91,44.16 66.52,42.32 68.46,40.47 C70.6426608,38.6883614 73.353625,37.6792217 76.17,37.6 C76.5133499,37.9981277 76.7201218,38.4957819 76.76,39.02 C75.3974658,39.2231967 74.057858,39.5580986 72.76,40.02 C71.9789323,40.2869678 71.2868051,40.7645356 70.76,41.4 C70.01,42.4 70.29,43.26 71.53,43.55 C73.1115699,43.7620133 74.7209672,43.5870042 76.22,43.04 C78.69,42.41 81.14,41.66 83.74,42.04 C84.4145869,42.1204095 85.0687256,42.3237687 85.67,42.64 C87.73,43.75 87.96,45.52 86.13,47 C83.5363409,48.9361106 80.4055955,50.0192926 77.17,50.1 L77.17,50.1 Z" id="Path" fill="#FEFDFC"></path>
            <path d="M78.12,16.6 L85.5,13.22 C86.0854462,13.3801039 86.6238786,13.6784709 87.07,14.09 L77.34,18.57 L71.09,15 L64.76,11.34 L74.16,7.01 L75.76,7.87 L68.76,11.17 L72.56,13.39 L78.3,10.77 C78.865203,10.9588038 79.3906807,11.2503592 79.85,11.63 L74.28,14.24 C75.5074092,15.1091954 76.7901238,15.8975304 78.12,16.6 L78.12,16.6 Z" id="Path" fill="#FEFDFC"></path>
            <polygon id="Path" fill="#FEFDFC" points="68.76 18.79 68.76 18.71 68.82 18.71"></polygon>
            <path d="M62.85,22.34 C64.77,23.58 66.54,24.95 66.52,27.44 C66.52,30.51 64.15,31.92 61.84,33.44 L53.48,28.1 L62.85,22.34 Z" id="Path" fill="#E77202"></path>
            <path d="M50.68,29.5 L60.43,33.92 C55.73,36.52 45.91,36.61 40.43,34.06 L50.68,29.5 Z" id="Path" fill="#E77202"></path>
            <path d="M37.3,23.87 L43.6,30.79 L39.32,33.52 C34.44,31.21 33.61,27.08 37.3,23.87 Z" id="Path" fill="#E77202"></path>
            <path d="M57.23,23.68 C54.42,22.84 51.52,22.41 48.68,21.68 C47.14,21.31 45.6,20.96 44.06,20.6 C47.3228824,19.6300899 50.7483424,19.3307448 54.13,19.72 C56.7438841,19.9235411 59.2988749,20.6012575 61.67,21.72 L57.23,23.68 Z" id="Path" fill="#E77202"></path>
            <path d="M62.69,33.87 C64.78,32.39 66.9,30.94 67.28,28.18 C67.66,25.42 65.83,23.54 63.84,21.97 C63.940567,21.6802434 64.1817737,21.4616499 64.48,21.39 C68.27,23.05 69.98,26.61 68.48,29.71 C67.4,31.93 63.92,34.5 62.69,33.87 Z" id="Path" fill="#E77202"></path>
            <path d="M36.25,22.65 L36.75,23.23 C34.16,25.71 33.51,28.16 34.84,30.56 C35.6769006,31.9706489 36.8701631,33.1363215 38.3,33.94 C38.06,34.43 37.74,34.26 37.41,34.07 C36.3899747,33.5214445 35.464825,32.8123883 34.67,31.97 C32.28,29.38 32.33,26.52 34.81,23.9 C35.2665163,23.4570261 35.7472549,23.0397183 36.25,22.65 Z" id="Path" fill="#E77202"></path>
            <path d="M42.12,20.27 L41.31,20.04 C48.530467,17.5629294 56.4045289,17.7903391 63.47,20.68 C63.1991224,21.1538757 62.5982939,21.3229979 62.12,21.06 C55.56,18.11 48.88,18.27 42.12,20.27 Z" id="Path" fill="#E77202"></path>
            <path d="M61.9,34.67 C54.6455315,37.7642086 46.4487439,37.796664 39.17,34.76 C46.4945124,37.5561022 54.5978593,37.5240168 61.9,34.67 L61.9,34.67 Z" id="Path" fill="#E77202"></path>
            <polygon id="Path" fill="#2655A3" points="52.86 29.11 52.86 29.11 52.86 29.17"></polygon>
            <polygon id="Path" fill="#E77202" points="24.16 47.4 24.41 47.35 24.17 47.41"></polygon>
        </g>
    </g>
</svg>