<svg xmlns="http://www.w3.org/2000/svg" xmlns:xlink="http://www.w3.org/1999/xlink" viewBox="0 0 156 58"><defs><style>.cls-1,.cls-7{fill:none;}.cls-2{clip-path:url(#clip-path);}.cls-3{clip-path:url(#clip-path-2);}.cls-4{clip-path:url(#clip-path-3);}.cls-5{fill:#272823;opacity:0.8;}.cls-10,.cls-5,.cls-7{isolation:isolate;}.cls-6{clip-path:url(#clip-path-4);}.cls-7{stroke:#000;stroke-miterlimit:10;stroke-width:2px;opacity:0.12;}.cls-8{clip-path:url(#clip-path-6);}.cls-10,.cls-9{fill:#fff;}.cls-10{font-size:16px;font-family:ArialMT, Arial;}</style><clipPath id="clip-path" transform="translate(-5 -5)"><path class="cls-1" d="M34,10h98a24,24,0,0,1,0,48H34a24,24,0,0,1,0-48Z"/></clipPath><clipPath id="clip-path-2" transform="translate(-5 -5)"><rect class="cls-1" width="166" height="68"/></clipPath><clipPath id="clip-path-3" transform="translate(-5 -5)"><rect class="cls-1" x="10" y="10" width="146" height="48"/></clipPath><clipPath id="clip-path-4" transform="translate(-5 -5)"><path class="cls-1" d="M34,10h98a24,24,0,0,1,0,48H34a24,24,0,0,1,0-48ZM0,0H166V68H0Z"/></clipPath><clipPath id="clip-path-6" transform="translate(-5 -5)"><path class="cls-1" d="M55.58,40.71c1,2,.18,2.88-1.78,1.85l-3.23-1.68a8.71,8.71,0,0,0-7.14,0L40.2,42.56c-2,1-2.76.19-1.78-1.85l6.8-14.18c1-2,2.58-2,3.56,0Z"/></clipPath></defs><title>Asset 1</title><g id="Layer_2" data-name="Layer 2"><g id="Layer_1-2" data-name="Layer 1"><g id="Layer_1-2-2" data-name="Layer 1-2"><g class="cls-2"><g class="cls-3"><g class="cls-4"><rect class="cls-5" width="156" height="58"/></g><g class="cls-6"><g class="cls-4"><path class="cls-7" d="M34,10h98a24,24,0,0,1,0,48H34a24,24,0,0,1,0-48Z" transform="translate(-5 -5)"/></g></g><g class="cls-8"><g class="cls-4"><rect class="cls-9" x="28" y="15" width="28" height="28"/></g></g><g class="cls-4"><text class="cls-10" transform="translate(67 35)">Find Me</text></g></g></g></g></g></g></svg>