<svg id="Layer_1" data-name="Layer 1" xmlns="http://www.w3.org/2000/svg" xmlns:xlink="http://www.w3.org/1999/xlink" viewBox="0 0 781.61 255.82"><defs><style>.cls-1{fill:url(#linear-gradient);}.cls-2{fill:#fff;}</style><linearGradient id="linear-gradient" x1="390.81" x2="390.81" y2="255.82" gradientUnits="userSpaceOnUse"><stop offset="0" stop-color="#00cea7"/><stop offset="0.2" stop-color="#00c3ac"/><stop offset="0.68" stop-color="#00afb5"/><stop offset="1" stop-color="#00a8b8"/></linearGradient></defs><title>K_simple_logo_full_colour</title><path class="cls-1" d="M697.33.34A84.18,84.18,0,0,0,630.4,33.48,71.21,71.21,0,0,0,621,21.9C607,8,588,.41,567.25.41S527.48,8,513.54,21.9a72,72,0,0,0-9.45,11.59,84.09,84.09,0,0,0-115.1-18A35.89,35.89,0,0,0,359.73.41c-21.56,0-41.4,8-55.87,22.43-.52.53-1,1.07-1.52,1.61a37.13,37.13,0,0,0-65.33-8,9.77,9.77,0,0,1-16.12-.1A37.16,37.16,0,0,0,188.05.48a36.22,36.22,0,0,0-20.39,7.87A37.45,37.45,0,0,0,144.19,0a37,37,0,0,0-22.25,7.39L74.47,42.77V37.24A37.24,37.24,0,1,0,0,37.24V131.3A37.18,37.18,0,0,0,13.53,160a37,37,0,0,0-8.08,47.6,99.5,99.5,0,0,0,170.54,0A37,37,0,0,0,167.9,160a36.51,36.51,0,0,0,6-6.27A38.17,38.17,0,0,0,177,149c13.77,12.81,32.12,19.86,52,19.86,20.69,0,39.77-7.63,53.71-21.49.37-.37.73-.76,1.09-1.14a37.16,37.16,0,0,0,71.36-14.53V103.94a84.2,84.2,0,0,0,139.53,42.21,36.93,36.93,0,0,0,64.5,6.69,9.78,9.78,0,0,1,16.17,0,36.92,36.92,0,0,0,64.49-6.69A84.25,84.25,0,1,0,697.33.34Z"/><path class="cls-2" d="M284.47,37.56V91.85c0,34-24.37,56.71-55.49,56.71s-55.5-22.69-55.5-56.71V37.56a16.89,16.89,0,0,1,33.78,0V93.05c0,15.69,9.66,24.14,21.72,24.14s21.71-8.45,21.71-24.14V37.56a16.89,16.89,0,0,1,33.78,0Z"/><path class="cls-2" d="M375.42,36.36a15.66,15.66,0,0,1-15.69,15.69c-13.75,0-24.85,9.65-24.85,29.67v49.95a16.9,16.9,0,0,1-33.79,0V81.72c0-37.39,26.07-61,58.64-61A15.66,15.66,0,0,1,375.42,36.36Z"/><path class="cls-2" d="M622.74,77.39v54.29a16.89,16.89,0,0,1-33.77,0V76.19c0-15.69-9.65-24.14-21.72-24.14s-21.71,8.45-21.71,24.14v55.49a16.9,16.9,0,0,1-33.79,0V77.39c0-34,24.37-56.71,55.5-56.71S622.74,43.37,622.74,77.39Z"/><path class="cls-2" d="M761.28,84.62a64,64,0,1,1-63.95-63.95A63.95,63.95,0,0,1,761.28,84.62ZM697.33,52a32.58,32.58,0,1,0,32.58,32.58A32.58,32.58,0,0,0,697.33,52Z"/><path class="cls-2" d="M501.11,84.62a64,64,0,1,1-63.95-63.95A63.95,63.95,0,0,1,501.11,84.62ZM437.16,52a32.58,32.58,0,1,0,32.58,32.58A32.58,32.58,0,0,0,437.16,52Z"/><path class="cls-2" d="M37.24,148.21A16.91,16.91,0,0,1,20.33,131.3V37.24a16.91,16.91,0,1,1,33.81,0V131.3A16.91,16.91,0,0,1,37.24,148.21Z"/><path class="cls-2" d="M144.19,148.21A16.8,16.8,0,0,1,134,144.8L71.27,97.5a16.9,16.9,0,0,1,.08-27l62.74-46.77a16.91,16.91,0,1,1,20.22,27.1l-44.69,33.3,44.76,33.72a16.91,16.91,0,0,1-10.19,30.4Z"/><path class="cls-2" d="M90.72,235.49a78.54,78.54,0,0,1-67.85-38.37A16.76,16.76,0,0,1,51.6,179.85a45.65,45.65,0,0,0,78.24,0,16.76,16.76,0,1,1,28.72,17.27A78.52,78.52,0,0,1,90.72,235.49Z"/></svg>