<svg id="Layer_1" data-name="Layer 1" xmlns="http://www.w3.org/2000/svg" xmlns:xlink="http://www.w3.org/1999/xlink" viewBox="0 0 357 237"><defs><style>.cls-1{fill:none;}.cls-2{isolation:isolate;}.cls-3{clip-path:url(#clip-path);}.cls-4{fill:#df5ee8;}.cls-5{clip-path:url(#clip-path-2);}.cls-6{fill:#3b55fc;}.cls-7{clip-path:url(#clip-path-3);}.cls-8{fill:#fcc3dd;}.cls-9{fill:#2e2452;}</style><clipPath id="clip-path"><polygon class="cls-1" points="117.21 109.81 117.41 39.49 178.6 74.82 178.4 145.13 117.21 109.81"/></clipPath><clipPath id="clip-path-2"><polygon class="cls-1" points="177.95 145.08 177.75 74.71 238.99 39.35 239.19 109.72 177.95 145.08"/></clipPath><clipPath id="clip-path-3"><polygon class="cls-1" points="116.71 39.6 177.55 4.25 238.79 39.6 177.96 74.96 116.71 39.6"/></clipPath></defs><title>AIMMO-Logo-vertical-RGB</title><g class="cls-2"><g class="cls-3"><polyline class="cls-4" points="177.8 75.27 118.21 40.87 118.01 109.34 177.6 143.75 177.8 75.27"/><path class="cls-4" d="M118,109.34l.2-68.47,59.59,34.4-.2,68.48L118,109.34M178.6,74.82,117.41,39.49l-.2,70.32,61.19,35.32.2-70.31"/></g></g><g class="cls-2"><g class="cls-5"><polyline class="cls-6" points="238.15 40.82 178.61 75.19 178.8 143.6 238.34 109.23 238.15 40.82"/><path class="cls-6" d="M178.8,143.6l-.19-68.4,59.53-34.38.2,68.41L178.8,143.6M239,39.35,177.75,74.71l.2,70.37,61.24-35.36L239,39.35"/></g></g><g class="cls-2"><g class="cls-7"><polyline class="cls-8" points="237.09 39.6 177.56 5.23 118.41 39.61 177.94 73.98 237.09 39.6"/><path class="cls-8" d="M118.41,39.61,177.56,5.23,237.09,39.6,177.94,74,118.41,39.61m120.38,0L177.55,4.25,116.71,39.6,178,75l60.83-35.35"/></g></g><path class="cls-9" d="M47.16,218.18H25.68l-4.14,14.45H4.2l23.41-68.88H45.33l23.41,68.88H51.4ZM36.38,179.45s-1.55,7.52-2.8,11.85l-3.95,13.39H43.21L39.36,191.3c-1.25-4.33-2.79-11.85-2.79-11.85Z"/><path class="cls-9" d="M76.44,163.75H93.3v68.88H76.44Z"/><path class="cls-9" d="M107.94,183h15.8v15.8h-15.8Zm0,33.81h15.8v15.8h-15.8Z"/><path class="cls-9" d="M141.29,164.69h6.94L166,204.48c1.54,3.47,3.27,8.28,3.27,8.28h.19s1.83-4.81,3.38-8.28l17.72-39.79h6.84l5.4,67.73h-6.65L192.35,185c-.29-3.66-.19-9.44-.19-9.44H192s-2,6-3.57,9.44L172.51,219.8h-6.27L150.35,185c-1.54-3.37-3.66-9.63-3.66-9.63h-.19s.09,6-.2,9.63l-3.75,47.4H135.9Z"/><path class="cls-9" d="M215.53,164.69h6.93l17.73,39.79c1.54,3.47,3.28,8.28,3.28,8.28h.19s1.83-4.81,3.37-8.28l17.73-39.79h6.84L277,232.42h-6.65L266.59,185c-.29-3.66-.2-9.44-.2-9.44h-.19s-2,6-3.56,9.44l-15.9,34.78h-6.26L224.58,185c-1.54-3.37-3.66-9.63-3.66-9.63h-.19s.1,6-.19,9.63l-3.76,47.4h-6.65Z"/><path class="cls-9" d="M317.69,163.54a34.23,34.23,0,0,1,34.49,34.58c0,19.85-15.32,35.45-34.49,35.45S283.2,218,283.2,198.12A34.23,34.23,0,0,1,317.69,163.54Zm0,63.87c15.22,0,27.55-12.72,27.55-29.29,0-16.18-12.33-28.42-27.55-28.42s-27.55,12.24-27.55,28.42C290.14,214.69,302.37,227.41,317.69,227.41Z"/></svg>