<svg id="Layer_1" data-name="Layer 1" xmlns="http://www.w3.org/2000/svg" xmlns:xlink="http://www.w3.org/1999/xlink" viewBox="0 0 230.45 324.92"><defs><style>.cls-1{fill:url(#linear-gradient);}.cls-2{fill:#fff;}</style><linearGradient id="linear-gradient" x1="107.38" y1="84.32" x2="127.22" y2="408.64" gradientTransform="translate(13.19 -90.72) rotate(3.5)" gradientUnits="userSpaceOnUse"><stop offset="0" stop-color="#00cea7"/><stop offset="0.2" stop-color="#00c3ac"/><stop offset="0.68" stop-color="#00afb5"/><stop offset="1" stop-color="#00a8b8"/></linearGradient></defs><title>K_mark_full_colour</title><path class="cls-1" d="M220.9,195.26A47.28,47.28,0,0,0,211.62,129l-29.32-22.1L211.42,85.2A47.28,47.28,0,0,0,221.06,19,47.55,47.55,0,0,0,183.13,0a46.93,46.93,0,0,0-28.25,9.38L94.58,54.33v-7A47.29,47.29,0,0,0,0,47.29V166.77a47.24,47.24,0,0,0,17.19,36.45A47,47,0,0,0,6.92,263.67a126.37,126.37,0,0,0,216.6,0,47,47,0,0,0-10.27-60.45A47.3,47.3,0,0,0,220.9,195.26Z"/><path class="cls-2" d="M47.29,188.24a21.47,21.47,0,0,1-21.47-21.47V47.29a21.47,21.47,0,0,1,42.94,0V166.77A21.47,21.47,0,0,1,47.29,188.24Z"/><path class="cls-2" d="M183.13,188.24a21.4,21.4,0,0,1-12.92-4.33L90.52,123.84a21.47,21.47,0,0,1,.1-34.35l79.69-59.41A21.48,21.48,0,0,1,196,64.51L139.23,106.8l56.85,42.83a21.47,21.47,0,0,1-13,38.61Z"/><path class="cls-2" d="M115.22,299.1a99.75,99.75,0,0,1-86.17-48.74,21.29,21.29,0,0,1,36.49-21.94,58,58,0,0,0,99.36,0,21.29,21.29,0,0,1,36.49,21.94A99.75,99.75,0,0,1,115.22,299.1Z"/></svg>